<?xml version="1.0" standalone="no"?>
<!DOCTYPE svg PUBLIC "-//W3C//DTD SVG 20010904//EN"
 "http://www.w3.org/TR/2001/REC-SVG-20010904/DTD/svg10.dtd">
<svg version="1.0" xmlns="http://www.w3.org/2000/svg"
 width="300.000000pt" height="300.000000pt" viewBox="0 0 300.000000 300.000000"
 preserveAspectRatio="xMidYMid meet">
<metadata>
Created by potrace 1.10, written by Peter Selinger 2001-2011
</metadata>
<g transform="translate(0.000000,300.000000) scale(0.100000,-0.100000)"
fill="#000000" stroke="none">
<path d="M2683 2985 c-3 -9 -3 -18 -1 -21 3 -3 8 4 11 16 6 23 -1 27 -10 5z"/>
<path d="M2706 2985 c-3 -9 -6 -22 -5 -28 0 -7 5 -1 10 12 5 13 8 26 5 28 -2
2 -6 -3 -10 -12z"/>
<path d="M2724 2964 c-8 -20 -14 -40 -12 -45 2 -5 10 11 19 36 20 54 14 60 -7
9z"/>
<path d="M2752 2975 c-17 -37 -14 -45 4 -12 9 16 14 31 11 33 -2 2 -9 -7 -15
-21z"/>
<path d="M2765 2948 c-14 -29 -25 -60 -24 -68 0 -11 2 -10 8 3 5 13 13 -1 30
-53 12 -40 25 -70 27 -67 2 2 -5 30 -16 62 -11 32 -18 68 -14 79 4 17 3 18 -5
6 -19 -27 -12 8 9 50 11 22 18 40 15 40 -3 0 -17 -24 -30 -52z"/>
<path d="M2813 2988 c-6 -7 -16 -24 -23 -37 -9 -18 -9 -22 0 -16 9 5 10 1 6
-16 -6 -21 -5 -21 9 4 17 29 31 37 21 11 -4 -10 -2 -13 6 -8 8 5 9 2 5 -10 -5
-11 -3 -15 5 -10 8 5 9 2 5 -10 -5 -11 -3 -15 5 -10 7 5 9 2 6 -8 -5 -12 0
-15 23 -13 19 2 28 -2 26 -9 -2 -6 -13 -10 -25 -10 -14 1 -19 -3 -14 -14 4
-11 1 -13 -9 -7 -8 5 -11 4 -6 0 15 -17 37 -13 48 7 6 12 30 41 52 65 44 48
56 76 29 66 -14 -5 -14 -2 3 18 10 13 -6 -1 -38 -31 -31 -30 -57 -51 -57 -46
0 5 -7 3 -15 -4 -8 -7 -15 -8 -15 -2 0 12 25 34 32 27 2 -3 22 14 44 38 l39
42 -42 -40 c-48 -44 -58 -38 -15 9 l27 31 -32 -29 c-18 -17 -33 -26 -33 -21 0
4 -9 0 -20 -10 -11 -10 -20 -13 -20 -7 0 6 4 14 10 17 5 3 14 14 20 25 16 30
-19 18 -47 -16 -26 -32 -32 -21 -7 14 16 23 14 31 -3 10z m37 -23 c-7 -9 -15
-13 -18 -10 -3 2 1 11 8 20 7 9 15 13 18 10 3 -2 -1 -11 -8 -20z m106 -54
c-23 -23 -46 -37 -61 -37 -14 0 -24 5 -21 11 2 5 8 9 13 8 6 -1 25 13 43 32
19 19 38 31 47 28 11 -4 6 -15 -21 -42z m-86 14 c-7 -9 -15 -13 -18 -10 -3 2
1 11 8 20 7 9 15 13 18 10 3 -2 -1 -11 -8 -20z"/>
<path d="M2939 2923 l-24 -28 28 24 c25 23 32 31 24 31 -2 0 -14 -12 -28 -27z"/>
<path d="M2889 2983 c-13 -16 -12 -17 4 -4 16 13 21 21 13 21 -2 0 -10 -8 -17
-17z"/>
<path d="M2673 2890 c0 -36 2 -50 4 -32 2 17 2 47 0 65 -2 17 -4 3 -4 -33z"/>
<path d="M2691 2924 c0 -11 3 -14 6 -6 3 7 2 16 -1 19 -3 4 -6 -2 -5 -13z"/>
<path d="M2702 2860 c0 -19 2 -27 5 -17 2 9 2 25 0 35 -3 9 -5 1 -5 -18z"/>
<path d="M2722 2865 c0 -16 2 -22 5 -12 2 9 2 23 0 30 -3 6 -5 -1 -5 -18z"/>
<path d="M2790 2865 c0 -5 5 -17 10 -25 5 -8 10 -10 10 -5 0 6 -5 17 -10 25
-5 8 -10 11 -10 5z"/>
<path d="M2752 2845 c0 -11 4 -31 8 -45 6 -20 8 -21 8 -5 0 11 -4 31 -8 45 -6
20 -8 21 -8 5z"/>
<path d="M2820 2841 c0 -6 4 -13 10 -16 6 -3 7 1 4 9 -7 18 -14 21 -14 7z"/>
<path d="M2680 2815 c0 -14 47 -96 91 -160 59 -87 65 -101 74 -198 3 -42 10
-75 15 -72 4 3 4 23 -1 44 -5 22 -8 52 -7 66 l2 26 19 -23 c9 -13 37 -53 61
-89 24 -37 49 -70 56 -74 18 -11 1 17 -80 130 l-71 100 4 82 c2 45 1 80 -3 78
-3 -2 -7 -17 -8 -34 -1 -16 -6 -40 -10 -52 -8 -20 -11 -18 -43 27 -57 81 -84
131 -81 147 1 4 -2 7 -8 7 -5 0 -10 -2 -10 -5z"/>
<path d="M2850 2791 c15 -28 12 -35 -7 -20 -15 13 -15 12 -3 -10 11 -21 14
-22 22 -8 8 15 -5 57 -18 57 -2 0 0 -9 6 -19z"/>
<path d="M1321 2674 c-136 -37 -269 -144 -329 -266 -60 -123 -62 -143 -61
-773 1 -314 4 -583 8 -599 l6 -29 14 39 c37 102 145 221 252 275 213 107 461
68 628 -100 58 -58 88 -105 127 -196 14 -32 17 1189 4 1255 -39 185 -194 346
-381 395 -68 19 -198 18 -268 -1z m194 -21 c13 18 14 17 20 -2 9 -28 24 -27
18 2 -5 22 -5 22 13 -2 12 -17 14 -26 6 -29 -13 -4 -17 -32 -4 -32 4 0 12 11
19 25 6 14 7 25 2 25 -5 0 -9 5 -9 11 0 8 5 8 15 -1 8 -7 12 -16 10 -21 -3 -4
11 -6 31 -4 30 2 37 -1 42 -18 5 -20 6 -20 13 -1 7 16 8 17 8 2 1 -12 9 -18
24 -18 18 0 19 -2 7 -10 -13 -9 -13 -10 0 -11 8 -1 21 -1 28 0 6 1 12 -8 12
-19 0 -14 5 -20 17 -18 18 3 20 -1 22 -56 1 -32 3 -33 36 -30 31 2 35 0 35
-22 0 -24 -8 -30 -26 -16 -5 4 -1 -1 9 -10 10 -9 25 -14 32 -11 15 5 20 -19
17 -74 0 -13 3 -23 9 -23 5 0 10 10 10 23 1 18 2 19 6 3 3 -10 0 -29 -7 -41
-7 -13 -10 -29 -7 -37 3 -7 6 -3 6 10 1 30 16 28 17 -3 1 -16 -5 -26 -18 -31
-11 -3 -17 -12 -15 -19 3 -7 0 -18 -6 -24 -9 -9 -8 -11 6 -6 9 4 17 16 17 26
0 10 4 19 9 19 5 0 9 -36 8 -80 -1 -44 -5 -80 -9 -80 -5 0 -8 10 -9 23 0 21
-1 21 -9 2 -6 -15 -2 -24 13 -36 15 -12 18 -23 13 -43 -4 -16 -2 -26 5 -26 6
0 9 -8 7 -17 -6 -32 -33 -21 -33 14 -1 47 -11 49 -12 3 -1 -24 3 -40 10 -40 8
0 8 -3 -1 -12 -7 -7 -12 -20 -12 -30 0 -26 -20 -22 -21 5 -1 21 -1 21 -8 -3
-10 -31 -5 -41 14 -33 10 3 15 -1 15 -14 0 -10 6 -25 13 -32 10 -12 8 -13 -8
-7 -11 4 -22 8 -25 9 -3 1 -5 -3 -5 -8 0 -6 5 -9 12 -7 8 2 13 -7 13 -24 0
-18 -4 -24 -13 -21 -8 3 -20 1 -28 -4 -10 -6 -10 -9 -1 -9 21 0 14 -48 -8 -55
-11 -3 -20 -11 -20 -17 0 -7 4 -7 13 -1 29 23 63 11 58 -19 0 -5 4 -8 9 -8 6
0 10 9 10 20 0 24 18 27 27 4 10 -26 -28 -46 -62 -33 -5 2 -11 0 -12 -6 -1 -5
5 -9 13 -7 12 3 19 -9 15 -30 0 -5 4 -8 10 -8 6 0 9 9 6 20 -3 13 0 20 9 20 8
0 14 -10 14 -25 0 -14 -4 -25 -9 -25 -5 0 -7 -9 -4 -21 4 -16 8 -17 14 -7 7
10 9 9 9 -3 0 -9 -8 -20 -17 -24 -17 -6 -17 -7 0 -16 31 -18 19 -45 -18 -40
-5 1 -2 -5 8 -12 19 -16 23 -42 6 -52 -6 -5 -4 -11 7 -19 11 -9 14 -18 8 -27
-11 -18 -14 -89 -3 -89 16 0 9 -29 -8 -39 -10 -6 -12 -11 -6 -11 7 0 12 -11
11 -25 -3 -31 -18 -33 -18 -2 0 18 -2 19 -10 7 -7 -11 -10 -11 -10 -2 0 7 -5
10 -11 7 -6 -4 -10 -1 -8 6 1 8 1 21 0 29 -1 12 -3 13 -10 1 -7 -11 -13 -8
-27 14 -14 21 -15 30 -6 33 14 4 17 42 3 42 -5 0 -8 -8 -7 -17 1 -13 -6 -18
-24 -18 -19 1 -25 6 -24 22 0 19 -2 20 -20 11 -12 -6 -18 -7 -14 -3 11 12 -11
35 -27 29 -8 -3 -16 4 -21 18 -7 22 -7 22 -14 3 -7 -19 -7 -19 -14 3 -4 12
-11 22 -16 22 -5 0 -7 -8 -4 -17 5 -16 4 -15 -10 1 -11 14 -13 23 -5 32 6 7 7
19 3 26 -6 9 -10 5 -14 -12 -4 -18 -13 -25 -30 -25 -28 0 -40 32 -18 47 9 7 8
8 -6 4 -10 -4 -25 -1 -33 6 -12 10 -20 6 -44 -21 -26 -30 -29 -32 -29 -12 0
12 7 24 15 27 8 4 15 17 15 30 0 19 5 24 26 24 15 0 23 4 19 10 -4 6 -14 9
-23 8 -10 -2 -18 6 -22 22 -4 18 -8 21 -14 12 -5 -8 -3 -19 3 -25 16 -16 14
-27 -4 -21 -11 5 -14 26 -13 97 1 51 -3 91 -8 90 -5 -1 -16 -4 -25 -8 -9 -3
-23 1 -32 9 -11 12 -17 13 -20 3 -3 -9 -7 -9 -17 0 -7 6 -10 19 -7 27 7 18 27
22 27 5 0 -6 7 -3 16 5 21 22 33 20 43 -6 6 -18 9 -19 14 -5 9 23 27 21 27 -3
0 -11 5 -20 10 -20 13 0 13 27 0 35 -6 4 -5 13 2 25 10 15 10 22 0 32 -9 9
-12 6 -12 -14 0 -23 -4 -27 -27 -25 -21 2 -28 8 -28 22 0 11 7 20 15 20 20 0
23 12 10 33 -11 16 -11 16 -6 0 3 -11 -2 -19 -15 -23 -12 -4 -19 -15 -19 -32
0 -15 -5 -23 -12 -20 -7 2 -21 0 -30 -4 -33 -17 -47 -1 -47 57 0 35 5 54 12
54 8 0 8 3 -1 9 -8 5 -12 20 -10 36 3 24 -1 28 -27 30 -28 3 -29 2 -7 -7 24
-12 32 -58 10 -58 -10 0 -10 -2 -1 -8 6 -4 11 -30 11 -59 1 -55 -14 -71 -47
-54 -24 13 -43 0 -25 -17 8 -7 14 -9 14 -4 0 4 20 8 45 8 40 1 45 -2 45 -21 0
-17 -6 -22 -25 -22 -14 0 -28 4 -31 9 -4 6 -10 5 -15 -3 -8 -12 -11 -11 -19 1
-6 10 -10 11 -10 3 0 -22 4 -28 17 -25 7 2 17 -7 23 -20 5 -14 9 -17 9 -8 1 9
-5 22 -11 29 -11 12 -9 13 7 6 11 -4 27 -7 36 -7 9 0 21 -9 27 -21 l11 -22 0
21 c1 28 51 31 51 3 0 -10 4 -20 8 -23 5 -3 8 4 8 16 -1 12 4 23 11 25 8 3 12
-13 12 -51 0 -31 -5 -56 -10 -56 -5 0 -9 11 -9 25 0 14 -4 25 -10 25 -14 0
-13 -33 2 -48 9 -9 9 -12 0 -12 -7 0 -12 -11 -12 -24 0 -24 16 -36 52 -36 14
0 19 -6 16 -22 -2 -13 -9 -22 -17 -20 -7 1 -19 -2 -26 -8 -23 -19 -47 0 -43
34 2 25 -1 30 -15 28 -21 -4 -34 25 -18 41 10 9 16 7 27 -8 14 -19 14 -19 10
5 -4 26 -7 27 -41 14 -16 -6 -18 -5 -7 7 6 7 12 20 12 29 0 22 -41 41 -63 29
-11 -6 -24 -6 -37 1 -18 10 -20 8 -19 -22 1 -24 3 -27 6 -10 5 26 23 30 23 4
0 -10 5 -23 12 -30 9 -9 9 -12 0 -12 -7 0 -12 -11 -12 -25 0 -14 -6 -26 -12
-26 -7 -1 -20 -2 -28 -3 -8 0 -17 -12 -20 -26 -4 -15 -13 -24 -23 -24 -13 1
-17 -6 -16 -30 1 -21 3 -25 6 -11 3 11 14 26 24 33 11 7 19 22 19 34 0 13 5
18 14 15 18 -7 43 13 48 38 2 12 11 19 21 19 9 -1 17 4 17 12 0 7 -6 11 -14 8
-14 -5 -30 22 -21 36 3 5 18 8 33 6 21 -1 26 -6 24 -21 -6 -36 -2 -68 9 -81 9
-10 9 -14 0 -14 -15 0 -14 -33 1 -48 9 -9 9 -12 0 -12 -7 0 -12 -9 -12 -21 0
-15 -5 -19 -15 -15 -8 3 -15 1 -15 -4 0 -6 -18 -10 -40 -10 -33 0 -38 -3 -33
-17 5 -15 3 -16 -8 -5 -19 18 -29 15 -30 -10 0 -21 -1 -21 -8 -4 -7 18 -8 18
-14 3 -9 -23 -27 -21 -27 3 0 11 -5 20 -12 20 -7 0 -5 7 5 18 10 11 13 22 7
31 -6 11 -9 9 -12 -8 -1 -12 -7 -23 -13 -24 -15 -3 -18 35 -3 44 10 7 8 9 -7
9 -16 0 -20 -7 -20 -32 0 -23 -5 -33 -15 -32 -10 1 -15 -8 -15 -27 0 -30 12
-28 25 5 9 21 9 21 9 -2 1 -13 5 -21 11 -17 5 3 7 12 3 20 -3 8 -1 15 5 15 5
0 12 -11 14 -25 4 -21 1 -25 -17 -25 -18 0 -22 -5 -18 -27 3 -24 2 -25 -6 -8
-7 14 -10 15 -11 5 0 -8 -9 -26 -19 -39 l-18 -24 5 51 c2 31 1 52 -5 52 -6 0
-9 -16 -8 -35 3 -53 -5 -84 -26 -90 -12 -4 -16 -12 -12 -22 4 -10 2 -14 -4
-10 -6 4 -18 -8 -27 -26 -15 -31 -16 -31 -17 -7 -6 90 -3 120 10 120 7 0 11
-6 8 -13 -3 -8 -2 -19 3 -26 5 -9 9 -2 12 18 4 27 1 31 -18 31 -21 0 -22 3
-18 63 2 34 4 71 4 82 1 20 1 20 10 0 7 -17 9 -17 9 -2 1 25 29 21 33 -5 3
-22 4 -22 9 3 3 15 1 26 -5 27 -6 1 -22 3 -36 5 -24 4 -25 6 -25 82 0 54 4 80
13 83 9 3 11 -11 10 -54 -2 -32 2 -59 7 -61 6 -2 9 14 8 34 -1 21 -2 52 -2 70
-1 24 -5 31 -16 27 -19 -8 -32 23 -16 39 10 9 15 8 25 -5 11 -14 12 -9 12 32
-1 28 -4 50 -8 50 -5 0 -8 -13 -8 -30 0 -16 -5 -30 -10 -30 -15 0 -24 30 -13
41 6 6 8 24 4 42 -13 61 -8 79 22 83 23 2 27 -1 27 -22 0 -13 -4 -24 -10 -24
-5 0 -6 8 -3 17 5 14 3 13 -13 -3 -11 -10 -16 -22 -11 -25 5 -4 7 -11 3 -17
-3 -6 -2 -13 4 -17 5 -3 10 3 10 13 0 11 6 22 14 25 8 3 16 16 18 28 4 29 48
35 56 7 4 -18 22 -26 22 -10 0 21 -40 44 -65 38 -24 -6 -25 -5 -13 14 11 18
10 23 -6 36 -11 8 -29 14 -40 14 -23 0 -16 -10 11 -14 10 -2 19 -13 21 -25 3
-19 0 -22 -24 -19 l-28 3 -2 168 c-1 142 1 167 14 167 11 0 13 -7 9 -30 -4
-17 -2 -30 3 -30 8 0 11 15 10 68 0 4 -8 7 -18 7 -10 0 -17 8 -17 20 0 14 8
21 28 23 21 3 27 -1 27 -15 0 -23 18 -43 40 -43 11 0 15 10 13 37 -1 21 -2 47
-2 57 -2 36 -14 7 -15 -34 -1 -43 -19 -60 -24 -22 -2 12 -12 27 -23 32 -22 12
-26 50 -5 50 8 0 17 -10 19 -22 l4 -23 2 23 c0 12 -6 25 -14 28 -16 6 -21 54
-6 54 5 0 8 -7 7 -16 0 -9 6 -19 14 -21 10 -3 11 -2 4 4 -15 11 -14 41 3 73
12 23 13 21 13 -37 0 -67 8 -75 45 -47 15 11 17 19 10 32 -6 9 -9 29 -7 45 3
22 8 27 30 27 20 0 23 3 13 9 -22 14 -51 -6 -51 -34 0 -16 -6 -25 -15 -25 -9
0 -15 9 -15 25 0 14 6 25 13 25 8 0 9 2 1 8 -7 4 -8 15 -3 27 6 17 8 17 8 3 1
-25 21 -23 21 2 0 11 5 20 12 20 6 0 8 3 5 6 -3 4 -2 15 4 25 13 24 42 25 37
2 -2 -11 -11 -17 -22 -15 -10 2 -15 -1 -12 -7 4 -5 2 -12 -4 -16 -5 -3 -10
-12 -10 -18 0 -7 5 -4 11 6 14 24 39 22 39 -4 0 -11 5 -17 10 -14 6 4 7 13 2
21 -5 8 -6 28 -4 44 3 24 8 28 31 26 20 -1 26 -7 25 -23 0 -12 5 -24 11 -27 7
-2 10 6 7 27 -4 25 -2 29 12 24 10 -4 16 -1 16 8 0 9 -6 12 -15 9 -17 -7 -22
31 -5 41 6 3 10 0 10 -7 0 -9 3 -9 10 2 9 13 11 13 20 0 8 -12 12 -12 18 -2 5
7 15 12 23 10 9 -2 13 4 11 15 -4 22 4 22 35 -3 19 -15 30 -17 43 -10 27 15
32 12 18 -10 -9 -14 -9 -23 -2 -30 8 -8 10 -4 10 12 -1 17 5 23 19 23 16 0 20
6 18 30 -3 30 -3 30 8 5 10 -24 11 -24 24 -7z m-85 1 c0 -6 -11 -11 -25 -11
-14 0 -25 5 -25 11 0 7 11 12 25 12 14 0 25 -5 25 -12z m40 -1 c0 -8 -5 -13
-12 -11 -18 6 -21 25 -3 25 8 0 15 -7 15 -14z m-243 -57 c-3 -8 -3 -17 1 -19
4 -2 0 -2 -8 1 -8 2 -21 5 -27 5 -19 1 -16 7 10 17 30 12 30 12 24 -4z m618
-123 c5 -18 3 -22 -9 -17 -9 3 -16 18 -16 32 0 29 14 20 25 -15z m-757 -105
c-2 -13 -7 -23 -13 -23 -5 0 -11 10 -13 23 -2 15 2 22 13 22 11 0 15 -7 13
-22z m-105 -68 c3 -11 1 -20 -4 -20 -5 0 -9 9 -9 20 0 11 2 20 4 20 2 0 6 -9
9 -20z m984 -242 c-3 -7 -5 -2 -5 12 0 14 2 19 5 13 2 -7 2 -19 0 -25z m-7
-164 c0 -7 -8 -18 -17 -23 -10 -6 -12 -11 -5 -11 14 0 17 -50 2 -50 -5 0 -10
9 -10 19 0 11 -4 22 -10 26 -5 3 -7 12 -5 20 3 8 7 22 10 30 5 18 35 9 35 -11z
m-10 -119 c0 -26 -14 -33 -25 -15 -9 14 1 40 15 40 5 0 10 -11 10 -25z m-26
-36 c-3 -5 2 -6 10 -3 12 5 16 0 16 -19 0 -46 -55 -46 -62 1 -3 22 0 27 19 28
13 1 20 -2 17 -7z m-452 -194 c-6 -32 -20 -41 -29 -19 -4 11 1 22 12 30 24 18
23 18 17 -11z m-72 -70 c0 -26 -14 -33 -25 -15 -9 14 1 40 15 40 5 0 10 -11
10 -25z m6 -46 c10 -17 -13 -36 -27 -22 -12 12 -4 33 11 33 5 0 12 -5 16 -11z
m24 -9 c0 -11 -4 -20 -8 -20 -4 0 -8 9 -8 20 0 11 4 20 8 20 4 0 8 -9 8 -20z
m40 0 c0 -21 -15 -27 -25 -10 -7 12 2 30 16 30 5 0 9 -9 9 -20z m57 -12 c-3
-7 -5 -2 -5 12 0 14 2 19 5 13 2 -7 2 -19 0 -25z m33 12 c0 -11 -2 -20 -4 -20
-2 0 -6 9 -9 20 -3 11 -1 20 4 20 5 0 9 -9 9 -20z m-410 -104 c0 -3 -4 -8 -10
-11 -5 -3 -10 -1 -10 4 0 6 5 11 10 11 6 0 10 -2 10 -4z m810 -193 c0 -10 -4
-14 -8 -8 -4 6 -11 13 -16 18 -5 4 -2 7 7 7 10 0 17 -8 17 -17z"/>
<path d="M1367 2609 c4 -13 8 -18 11 -10 2 7 -1 18 -6 23 -8 8 -9 4 -5 -13z"/>
<path d="M1500 2605 c0 -8 9 -20 20 -27 11 -7 20 -22 20 -34 0 -13 -8 -24 -20
-27 -20 -5 -29 -47 -10 -47 6 0 10 9 10 20 0 17 9 24 30 22 3 0 5 15 5 33 0
18 -2 33 -5 33 -21 -2 -30 5 -30 22 0 11 -4 20 -10 20 -5 0 -10 -7 -10 -15z"/>
<path d="M1530 2611 c0 -6 5 -13 10 -16 6 -3 10 1 10 9 0 9 -4 16 -10 16 -5 0
-10 -4 -10 -9z"/>
<path d="M1638 2603 c-3 -13 -14 -23 -25 -23 -14 0 -18 -8 -18 -34 0 -19 3
-32 8 -29 4 2 7 16 7 29 0 30 23 28 28 -2 7 -33 19 -36 14 -3 -4 25 -2 31 10
27 8 -4 21 -2 29 3 10 6 7 9 -13 9 -20 0 -27 6 -30 23 l-3 22 -7 -22z"/>
<path d="M1475 2593 c-4 -10 -7 -30 -6 -45 2 -19 -3 -28 -18 -33 -23 -7 -28
-34 -9 -53 9 -9 9 -12 1 -12 -7 0 -11 -9 -10 -20 1 -11 5 -20 9 -20 4 0 8 9 8
20 0 11 5 20 10 20 19 0 10 -42 -12 -60 -19 -15 -21 -22 -12 -37 6 -10 23 -19
37 -21 17 -2 27 -10 30 -25 3 -14 4 -12 2 6 -2 28 2 32 22 19 12 -8 14 -102 2
-112 -3 -3 -3 -14 2 -25 6 -17 8 -17 8 -2 1 9 4 17 9 17 4 0 6 30 5 67 -1 59
-3 68 -20 68 -11 0 -19 8 -21 23 -4 27 22 30 38 5 11 -17 11 -17 6 -1 -3 11 3
23 16 32 15 10 18 20 13 33 -7 16 -9 15 -14 -7 -9 -34 -53 -34 -61 0 -4 17 -8
21 -14 12 -4 -7 -3 -19 3 -26 17 -21 -1 -69 -28 -71 -26 -2 -39 21 -22 38 10
9 16 7 27 -8 14 -19 14 -19 10 5 -2 14 -5 39 -5 57 -1 24 -5 31 -16 27 -19 -8
-32 23 -16 39 10 9 15 8 24 -4 10 -13 12 -4 12 48 0 34 -1 63 -1 63 -1 0 -5
-8 -9 -17z"/>
<path d="M1292 2588 c-11 -14 -4 -16 51 -19 11 0 17 -8 17 -23 0 -32 -48 -33
-60 -2 l-9 21 0 -22 c-1 -21 29 -40 57 -35 7 2 12 -7 12 -22 0 -13 6 -27 13
-29 10 -4 10 -6 0 -6 -16 -1 -17 -51 -2 -51 8 0 7 -5 -1 -15 -10 -12 -10 -19
-2 -27 9 -9 12 -7 12 10 0 12 5 22 10 22 6 0 10 -11 10 -25 0 -14 -6 -25 -12
-25 -9 0 -9 -3 1 -9 8 -5 21 -7 28 -4 11 4 14 -1 11 -18 -2 -13 -9 -23 -16
-22 -15 4 -15 -17 -1 -37 9 -13 10 -12 5 3 -3 9 -1 17 4 17 6 0 10 -9 10 -20
0 -11 5 -20 10 -20 14 0 12 37 -2 44 -10 5 -10 7 0 12 19 9 14 42 -8 49 -22 7
-29 55 -8 55 21 0 -1 13 -24 14 -28 1 -33 41 -6 41 10 0 18 5 18 10 0 5 -8 10
-18 10 -11 0 -17 8 -16 23 0 12 -4 22 -10 22 -7 0 -7 3 -1 8 6 4 10 16 10 27
0 14 7 20 28 22 24 2 32 -6 28 -29 0 -5 4 -8 9 -8 18 0 10 29 -12 44 -15 11
-26 12 -40 5 -12 -6 -24 -6 -37 0 -10 6 -21 7 -25 3 -4 -3 -11 -1 -15 6 -6 10
-10 10 -19 0z"/>
<path d="M1490 2551 c0 -6 5 -13 10 -16 6 -3 10 1 10 9 0 9 -4 16 -10 16 -5 0
-10 -4 -10 -9z"/>
<path d="M1581 2544 c0 -11 3 -14 6 -6 3 7 2 16 -1 19 -3 4 -6 -2 -5 -13z"/>
<path d="M1700 2545 c0 -8 4 -15 8 -15 5 0 9 7 9 15 0 8 -4 15 -9 15 -4 0 -8
-7 -8 -15z"/>
<path d="M1676 2535 c-3 -8 -1 -15 4 -15 6 0 10 7 10 15 0 8 -2 15 -4 15 -2 0
-6 -7 -10 -15z"/>
<path d="M1188 2523 c-2 -5 -1 -28 3 -53 3 -25 7 -39 7 -32 3 20 22 14 32 -10
l9 -23 0 23 c1 13 6 22 14 20 13 -3 17 3 17 23 0 6 -7 3 -16 -5 -28 -28 -59
-11 -52 28 5 24 -6 46 -14 29z"/>
<path d="M1260 2511 c0 -25 6 -27 13 -6 4 8 2 17 -3 20 -6 4 -10 -3 -10 -14z"/>
<path d="M1396 2521 c-4 -5 -2 -12 3 -15 5 -4 12 -2 15 3 4 5 2 12 -3 15 -5 4
-12 2 -15 -3z"/>
<path d="M1733 2522 c-7 -5 -7 -10 1 -18 9 -8 15 -7 23 2 9 9 9 13 -1 17 -7 3
-18 2 -23 -1z"/>
<path d="M1295 2485 c0 -13 3 -21 8 -18 4 2 7 10 7 18 0 8 -3 16 -7 18 -5 3
-8 -5 -8 -18z"/>
<path d="M1565 2497 c-4 -10 -5 -21 -1 -24 10 -10 18 4 13 24 -4 17 -4 17 -12
0z"/>
<path d="M1669 2488 c0 -13 -3 -34 -5 -48 -4 -23 -4 -23 9 -6 7 10 11 31 9 47
-5 35 -12 38 -13 7z"/>
<path d="M1220 2486 c0 -9 5 -16 10 -16 6 0 10 4 10 9 0 6 -4 13 -10 16 -5 3
-10 -1 -10 -9z"/>
<path d="M1533 2480 c3 -10 2 -20 -2 -22 -4 -2 1 -11 11 -20 17 -17 18 -17 14
5 -3 12 -5 30 -5 40 -1 9 -6 17 -12 17 -6 0 -9 -9 -6 -20z"/>
<path d="M1604 2477 c-8 -17 -7 -24 1 -24 6 0 12 11 13 24 2 29 0 29 -14 0z"/>
<path d="M1631 2488 c-1 -20 14 -24 25 -6 4 6 3 8 -4 4 -5 -3 -13 0 -15 6 -3
8 -6 6 -6 -4z"/>
<path d="M1701 2484 c0 -11 3 -14 6 -6 3 7 2 16 -1 19 -3 4 -6 -2 -5 -13z"/>
<path d="M1781 2484 c0 -11 3 -14 6 -6 3 7 2 16 -1 19 -3 4 -6 -2 -5 -13z"/>
<path d="M1736 2465 c-6 -17 5 -26 21 -17 8 5 7 11 -2 19 -10 10 -14 9 -19 -2z"/>
<path d="M1321 2461 c-10 -6 -9 -10 3 -14 8 -3 18 -2 21 3 8 13 -9 20 -24 11z"/>
<path d="M1631 2453 c0 -4 4 -17 9 -28 8 -19 9 -19 9 2 1 12 -3 25 -9 28 -5 3
-10 3 -9 -2z"/>
<path d="M1158 2429 c-1 -13 -10 -25 -18 -25 -8 -1 -18 -2 -22 -3 -3 0 -3 -13
1 -28 6 -23 3 -30 -13 -38 -22 -11 -35 -45 -17 -45 6 0 11 9 11 20 0 14 7 20
22 20 29 0 58 28 50 48 -5 14 -7 13 -12 -6 -6 -26 -23 -31 -28 -8 -2 9 8 26
22 38 18 16 23 27 17 37 -7 11 -10 9 -13 -10z"/>
<path d="M1707 2428 c3 -13 11 -28 18 -33 7 -6 15 -19 18 -30 4 -18 5 -18 6 3
0 12 6 22 11 22 6 0 10 -10 11 -22 l0 -23 9 23 c6 13 15 22 22 20 13 -3 18 3
18 23 0 6 -7 3 -16 -6 -10 -10 -23 -13 -33 -9 -9 4 -24 6 -33 6 -13 -1 -18 7
-18 24 0 13 -4 24 -9 24 -5 0 -7 -10 -4 -22z"/>
<path d="M1290 2426 c0 -8 4 -17 9 -20 5 -4 7 3 4 14 -6 23 -13 26 -13 6z"/>
<path d="M1601 2424 c0 -11 3 -14 6 -6 3 7 2 16 -1 19 -3 4 -6 -2 -5 -13z"/>
<path d="M1189 2408 c-3 -38 1 -111 5 -116 4 -3 6 4 6 16 0 11 6 23 13 25 10
4 10 6 0 6 -15 1 -18 51 -3 51 6 0 15 -10 20 -22 l9 -23 0 23 c1 12 -3 22 -8
22 -5 0 -17 7 -25 16 -12 12 -16 12 -17 2z"/>
<path d="M1260 2408 c-6 -34 -3 -163 3 -152 5 9 17 13 30 10 12 -3 16 -3 9 0
-10 5 -10 9 -1 20 8 10 8 14 0 14 -6 0 -11 -4 -11 -10 0 -5 -4 -10 -10 -10 -5
0 -10 11 -10 24 0 21 4 23 37 22 36 -1 36 0 36 37 0 20 -4 37 -9 38 -5 1 -8
-12 -6 -29 2 -20 -2 -31 -12 -35 -25 -10 -46 3 -46 29 0 30 17 31 23 2 l4 -23
2 22 c0 13 -7 27 -19 33 -11 6 -20 9 -20 8z"/>
<path d="M1658 2397 c-9 -6 -18 -21 -20 -31 -5 -30 -28 -32 -28 -3 0 14 6 28
13 31 6 2 1 3 -13 1 -14 -2 -28 -4 -32 -4 -11 -1 -10 -41 1 -41 5 0 12 8 14
18 2 9 4 5 3 -9 -2 -24 1 -26 33 -25 29 1 35 -2 33 -17 -3 -17 -2 -17 16 0 21
21 21 23 -5 27 -10 2 -19 13 -21 24 -4 26 13 29 27 5 10 -16 10 -15 8 4 -4 31
-11 35 -29 20z"/>
<path d="M1800 2342 c-23 -24 -29 -46 -16 -61 9 -12 8 -13 -6 -8 -15 5 -16 4
-5 -14 10 -16 13 -17 15 -4 6 28 24 15 20 -15 -1 -16 2 -29 7 -29 6 1 9 5 8 9
-2 5 -4 22 -5 38 -1 20 -6 28 -15 25 -9 -3 -13 4 -13 22 0 20 4 26 15 22 17
-7 27 4 17 20 -5 7 -12 6 -22 -5z"/>
<path d="M1863 2337 c-13 -5 -23 -14 -23 -20 0 -5 7 -4 15 3 19 16 22 12 25
-20 5 -57 0 -78 -20 -83 -13 -3 -20 -13 -19 -29 2 -23 2 -23 6 0 3 15 12 22
26 22 20 0 22 4 20 57 -2 33 2 60 8 64 19 11 -14 17 -38 6z"/>
<path d="M1715 2328 c-2 -7 -5 -20 -8 -28 -2 -8 -12 -15 -23 -15 -15 0 -18 -6
-16 -29 2 -16 -2 -32 -10 -37 -24 -16 -31 -9 -13 11 14 16 16 23 7 32 -9 9
-12 7 -12 -9 0 -12 -4 -24 -9 -27 -11 -7 -3 -42 14 -56 9 -8 11 -4 7 15 -4 22
-1 25 26 25 24 0 32 -5 35 -22 4 -23 4 -23 6 -1 1 16 7 21 24 21 12 -1 28 -6
35 -11 8 -6 12 -6 12 1 0 6 -9 14 -20 17 -11 3 -20 11 -20 16 0 6 -7 4 -15 -4
-24 -25 -55 -10 -55 26 0 17 3 27 7 24 10 -10 33 13 33 34 0 12 9 19 28 22
l27 4 -28 2 c-15 0 -29 -5 -32 -11z"/>
<path d="M1560 2310 c0 -11 5 -20 10 -20 6 0 10 9 10 20 0 11 -4 20 -10 20 -5
0 -10 -9 -10 -20z"/>
<path d="M1635 2317 c-4 -10 -5 -21 -1 -24 10 -10 18 4 13 24 -4 17 -4 17 -12
0z"/>
<path d="M1126 2300 c-11 -33 -7 -61 9 -80 7 -8 15 -24 19 -35 3 -12 4 -9 2 7
-2 16 3 33 10 39 7 6 10 18 6 27 -5 14 -7 13 -12 -6 -3 -13 -9 -23 -15 -23
-14 0 -24 44 -12 58 5 7 7 18 5 25 -3 7 -8 1 -12 -12z"/>
<path d="M1151 2307 c-1 -21 21 -18 27 4 3 12 2 12 -6 0 -8 -11 -10 -11 -15 0
-4 10 -6 8 -6 -4z"/>
<path d="M1220 2311 c0 -6 4 -13 10 -16 6 -3 7 1 4 9 -7 18 -14 21 -14 7z"/>
<path d="M1360 2305 c0 -8 5 -15 10 -15 6 0 10 7 10 15 0 8 -4 15 -10 15 -5 0
-10 -7 -10 -15z"/>
<path d="M1611 2304 c0 -11 3 -14 6 -6 3 7 2 16 -1 19 -3 4 -6 -2 -5 -13z"/>
<path d="M1327 2286 c-3 -8 -2 -18 3 -21 13 -8 20 9 11 24 -6 10 -10 9 -14 -3z"/>
<path d="M1470 2285 c-1 -5 -1 -22 0 -36 1 -19 -5 -28 -19 -32 -12 -3 -21 -1
-21 3 0 5 -12 7 -26 5 -30 -3 -42 18 -24 40 11 13 10 14 -4 9 -35 -14 -11 -64
32 -64 19 0 23 -5 20 -22 -2 -16 -9 -22 -22 -20 -11 2 -15 -1 -11 -7 3 -6 12
-11 19 -11 10 0 14 -15 14 -50 0 -47 -2 -50 -25 -50 -21 0 -23 -2 -13 -15 11
-13 14 -13 27 0 8 8 19 15 24 15 5 0 9 9 9 20 0 11 -3 20 -8 20 -4 0 -7 18 -7
39 0 22 2 38 6 35 3 -2 4 8 1 21 -3 19 0 25 13 25 14 0 16 -6 12 -30 -4 -16
-3 -30 2 -30 12 0 17 57 10 105 -3 22 -7 36 -9 30z"/>
<path d="M1736 2282 c-2 -4 -1 -14 5 -22 7 -12 9 -10 9 8 0 23 -5 28 -14 14z"/>
<path d="M1187 2243 c1 -21 2 -50 2 -65 1 -16 6 -28 11 -28 6 0 8 11 4 26 -4
17 -2 29 7 35 10 6 11 9 2 9 -8 0 -13 13 -13 30 0 17 -3 30 -7 30 -5 0 -7 -17
-6 -37z"/>
<path d="M1227 2273 c-10 -9 -9 -43 1 -43 4 0 9 11 10 25 2 26 0 29 -11 18z"/>
<path d="M1598 2253 c5 -21 7 -23 10 -9 2 10 0 22 -6 28 -6 6 -7 0 -4 -19z"/>
<path d="M1710 2249 c0 -11 4 -18 10 -14 5 3 7 12 3 20 -7 21 -13 19 -13 -6z"/>
<path d="M1490 2256 c0 -2 7 -9 15 -16 12 -10 15 -10 15 4 0 9 -7 16 -15 16
-8 0 -15 -2 -15 -4z"/>
<path d="M1575 2250 c-3 -5 -1 -10 4 -10 6 0 11 5 11 10 0 6 -2 10 -4 10 -3 0
-8 -4 -11 -10z"/>
<path d="M1840 2250 c0 -5 5 -10 10 -10 6 0 10 5 10 10 0 6 -4 10 -10 10 -5 0
-10 -4 -10 -10z"/>
<path d="M1331 2193 c-1 -26 1 -45 3 -42 7 7 11 77 5 84 -3 3 -7 -16 -8 -42z"/>
<path d="M1245 2217 c-10 -8 -15 -21 -12 -33 4 -17 5 -16 6 4 0 12 5 22 10 22
5 0 11 -10 13 -22 3 -21 4 -20 9 5 7 33 -2 41 -26 24z"/>
<path d="M1577 2213 c-11 -11 -8 -43 4 -43 6 0 9 9 6 20 -3 10 0 21 7 24 7 3
7 5 0 5 -6 1 -14 -2 -17 -6z"/>
<path d="M1014 2199 c-3 -6 -1 -16 5 -22 8 -8 11 -5 11 11 0 24 -5 28 -16 11z"/>
<path d="M1090 2189 c0 -11 4 -18 10 -14 5 3 7 12 3 20 -7 21 -13 19 -13 -6z"/>
<path d="M1363 2170 c3 -25 0 -51 -6 -58 -7 -9 -6 -11 7 -6 14 5 16 15 11 53
-8 60 -18 69 -12 11z"/>
<path d="M1291 2184 c0 -11 3 -14 6 -6 3 7 2 16 -1 19 -3 4 -6 -2 -5 -13z"/>
<path d="M1511 2184 c0 -11 3 -14 6 -6 3 7 2 16 -1 19 -3 4 -6 -2 -5 -13z"/>
<path d="M1600 2190 c0 -5 5 -10 10 -10 6 0 10 5 10 10 0 6 -4 10 -10 10 -5 0
-10 -4 -10 -10z"/>
<path d="M1738 2155 c-6 -30 -2 -32 12 -6 6 11 6 22 1 25 -5 3 -11 -5 -13 -19z"/>
<path d="M1807 2173 c-2 -5 -1 -21 3 -38 l6 -30 5 33 c5 30 -4 53 -14 35z"/>
<path d="M1053 2086 c-1 -87 -6 -106 -26 -106 -8 0 -8 3 1 12 15 15 16 38 2
38 -5 0 -10 -9 -10 -20 0 -13 -7 -20 -20 -20 -11 0 -20 -5 -20 -11 0 -6 9 -8
20 -4 17 5 20 2 21 -22 1 -26 1 -26 7 -5 9 30 26 33 30 5 2 -13 -1 -23 -6 -23
-5 0 -7 -11 -4 -25 2 -14 9 -25 14 -25 6 0 8 11 6 25 -3 13 -1 22 3 19 5 -3 9
-14 9 -25 0 -10 7 -19 15 -19 8 0 15 7 15 16 0 8 -4 13 -8 10 -12 -7 -30 31
-37 80 -4 26 -2 45 4 49 6 3 8 11 5 17 -4 6 -6 35 -5 64 1 30 -2 54 -6 54 -5
0 -9 -38 -10 -84z"/>
<path d="M1535 2110 c0 -33 -2 -60 -6 -60 -3 0 -4 -15 -3 -32 3 -29 3 -30 -4
-8 -7 20 -9 22 -14 8 -4 -9 -1 -22 8 -28 8 -7 13 -24 13 -39 -1 -17 -3 -20 -6
-8 -2 9 -11 17 -19 17 -11 0 -10 -5 6 -22 11 -12 20 -31 21 -42 0 -19 1 -19
10 3 11 28 23 20 33 -21 4 -17 2 -28 -4 -28 -5 0 -10 -7 -10 -15 0 -23 14 -18
27 10 6 15 7 25 1 25 -5 0 -8 10 -6 23 2 15 9 21 23 19 18 -2 18 -2 3 8 -10 6
-18 20 -18 30 0 11 -5 20 -11 20 -7 0 -9 -11 -6 -30 6 -28 5 -29 -13 -18 -23
15 -26 38 -7 57 6 8 8 11 2 8 -6 -3 -9 28 -7 89 2 52 -1 94 -5 94 -5 0 -8 -27
-8 -60z"/>
<path d="M1600 2160 c-13 -8 -12 -10 3 -10 9 0 17 5 17 10 0 12 -1 12 -20 0z"/>
<path d="M1873 2153 c9 -11 14 -30 11 -48 l-4 -30 9 27 c12 35 3 68 -17 68
-13 0 -13 -2 1 -17z"/>
<path d="M1082 2140 c0 -14 2 -19 5 -12 2 6 2 18 0 25 -3 6 -5 1 -5 -13z"/>
<path d="M1260 2149 c0 -5 5 -7 10 -4 6 3 10 8 10 11 0 2 -4 4 -10 4 -5 0 -10
-5 -10 -11z"/>
<path d="M1713 2153 c-16 -6 -17 -43 -2 -43 5 0 7 5 4 10 -4 6 -1 17 5 25 13
16 12 16 -7 8z"/>
<path d="M1022 2130 c0 -14 2 -19 5 -12 2 6 2 18 0 25 -3 6 -5 1 -5 -13z"/>
<path d="M1150 2130 c0 -11 5 -20 10 -20 6 0 10 9 10 20 0 11 -4 20 -10 20 -5
0 -10 -9 -10 -20z"/>
<path d="M1230 2130 c0 -19 3 -21 12 -12 9 9 9 15 0 24 -9 9 -12 7 -12 -12z"/>
<path d="M1498 2127 c-3 -14 0 -24 7 -24 7 0 10 10 7 24 -2 13 -6 23 -7 23 -1
0 -5 -10 -7 -23z"/>
<path d="M1560 2136 c0 -17 28 -41 37 -32 3 3 1 6 -5 6 -7 0 -12 9 -12 20 0
11 -4 20 -10 20 -5 0 -10 -6 -10 -14z"/>
<path d="M1630 2130 c0 -13 5 -18 15 -14 12 5 13 10 4 20 -15 19 -19 18 -19
-6z"/>
<path d="M1670 2130 c0 -19 3 -21 12 -12 9 9 9 15 0 24 -9 9 -12 7 -12 -12z"/>
<path d="M1770 2130 c0 -19 3 -21 12 -12 9 9 9 15 0 24 -9 9 -12 7 -12 -12z"/>
<path d="M1842 2130 c0 -14 2 -19 5 -12 2 6 2 18 0 25 -3 6 -5 1 -5 -13z"/>
<path d="M1908 2127 c-3 -14 0 -24 7 -24 7 0 10 10 7 24 -2 13 -6 23 -7 23 -1
0 -5 -10 -7 -23z"/>
<path d="M1101 2129 c-1 -9 7 -23 17 -30 15 -12 16 -12 6 1 -6 8 -14 22 -17
30 -5 13 -6 12 -6 -1z"/>
<path d="M1187 2056 c1 -45 2 -82 2 -84 1 -1 15 5 32 13 30 16 35 35 11 43 -7
2 -12 -6 -12 -17 0 -12 -4 -21 -10 -21 -5 0 -10 11 -10 25 0 14 6 25 13 25 9
0 8 3 -2 9 -8 6 -12 18 -8 32 3 13 0 31 -6 40 -10 13 -12 0 -10 -65z"/>
<path d="M1340 2131 c0 -7 -4 -10 -9 -7 -4 3 -6 -7 -3 -22 l5 -27 8 29 c5 17
6 32 4 35 -3 2 -5 -1 -5 -8z"/>
<path d="M1611 2124 c0 -11 3 -14 6 -6 3 7 2 16 -1 19 -3 4 -6 -2 -5 -13z"/>
<path d="M1263 2103 c0 -8 6 -9 19 -2 10 5 18 11 18 12 0 2 -8 3 -18 3 -10 0
-19 -6 -19 -13z"/>
<path d="M980 2100 c0 -5 5 -10 10 -10 6 0 10 5 10 10 0 6 -4 10 -10 10 -5 0
-10 -4 -10 -10z"/>
<path d="M1465 2100 c3 -5 8 -10 11 -10 2 0 4 5 4 10 0 6 -5 10 -11 10 -5 0
-7 -4 -4 -10z"/>
<path d="M1737 2090 c3 -11 7 -20 9 -20 2 0 4 9 4 20 0 11 -4 20 -9 20 -5 0
-7 -9 -4 -20z"/>
<path d="M1018 2074 c4 -21 1 -24 -24 -24 -22 0 -25 -3 -14 -10 10 -6 22 -5
35 4 25 16 31 42 12 49 -10 4 -13 -1 -9 -19z"/>
<path d="M1604 2086 c-8 -22 -10 -106 -1 -106 4 0 8 12 8 28 4 80 4 92 1 92
-1 0 -5 -6 -8 -14z"/>
<path d="M1638 2075 c5 -29 8 -31 15 -11 3 8 0 19 -7 25 -10 9 -12 6 -8 -14z"/>
<path d="M1669 2072 c-7 -39 7 -51 29 -26 16 17 16 17 0 5 -15 -11 -17 -8 -20
21 l-3 33 -6 -33z"/>
<path d="M1771 2093 c0 -4 4 -17 9 -28 8 -19 9 -19 9 2 1 12 -3 25 -9 28 -5 3
-10 3 -9 -2z"/>
<path d="M1080 2076 c0 -8 5 -18 10 -21 6 -3 10 3 10 14 0 12 -4 21 -10 21 -5
0 -10 -6 -10 -14z"/>
<path d="M1152 2070 c0 -14 2 -19 5 -12 2 6 2 18 0 25 -3 6 -5 1 -5 -13z"/>
<path d="M1227 2070 c3 -11 7 -20 9 -20 2 0 4 9 4 20 0 11 -4 20 -9 20 -5 0
-7 -9 -4 -20z"/>
<path d="M1367 2083 c-4 -3 -7 -11 -7 -17 0 -6 5 -5 12 2 6 6 9 14 7 17 -3 3
-9 2 -12 -2z"/>
<path d="M1500 2069 c0 -11 5 -17 10 -14 6 3 10 13 10 21 0 8 -4 14 -10 14 -5
0 -10 -9 -10 -21z"/>
<path d="M1130 2058 c0 -12 -3 -18 -7 -15 -3 4 -12 2 -20 -4 -16 -14 -18 -53
-2 -44 6 4 8 13 5 21 -3 7 -1 16 4 19 6 4 10 -3 10 -14 0 -39 16 -21 17 19 1
22 0 40 -3 40 -2 0 -4 -10 -4 -22z"/>
<path d="M1254 2060 c3 -14 5 -29 5 -33 1 -5 8 -1 17 7 8 9 19 16 24 16 5 0
16 -7 24 -16 15 -14 16 -14 16 4 0 16 -6 19 -35 16 -24 -1 -38 3 -45 14 -8 14
-9 12 -6 -8z"/>
<path d="M1575 2070 c3 -5 8 -10 11 -10 2 0 4 5 4 10 0 6 -5 10 -11 10 -5 0
-7 -4 -4 -10z"/>
<path d="M1837 2056 c-4 -10 -1 -13 8 -9 8 3 12 9 9 14 -7 12 -11 11 -17 -5z"/>
<path d="M1880 2061 c0 -6 4 -13 10 -16 6 -3 7 1 4 9 -7 18 -14 21 -14 7z"/>
<path d="M1741 2044 c0 -11 3 -14 6 -6 3 7 2 16 -1 19 -3 4 -6 -2 -5 -13z"/>
<path d="M1805 2051 c-3 -5 -1 -12 5 -16 5 -3 10 1 10 9 0 18 -6 21 -15 7z"/>
<path d="M1465 2017 c0 -19 5 -34 10 -34 6 0 9 15 7 34 -2 18 -7 33 -11 33 -3
0 -6 -15 -6 -33z"/>
<path d="M1434 2025 c-3 -8 -4 -20 -2 -27 3 -7 7 -1 10 15 6 29 1 36 -8 12z"/>
<path d="M1638 2013 c5 -21 7 -23 10 -9 2 10 0 22 -6 28 -6 6 -7 0 -4 -19z"/>
<path d="M1714 2032 c-16 -10 -19 -42 -6 -72 6 -14 11 -18 11 -9 1 8 -4 20
-11 27 -9 9 -9 12 1 12 7 0 11 6 8 14 -3 7 0 19 6 25 12 12 8 14 -9 3z"/>
<path d="M1148 2005 c-5 -25 -4 -25 10 -11 12 11 13 19 5 27 -7 7 -12 3 -15
-16z"/>
<path d="M1361 2013 c-1 -13 7 -24 19 -28 13 -4 20 -15 20 -31 0 -30 -18 -31
-30 -1 -8 21 -9 21 -9 1 -1 -13 8 -25 24 -32 30 -14 32 -9 24 48 -3 25 -7 39
-7 33 -3 -21 -22 -15 -32 10 l-9 22 0 -22z"/>
<path d="M1771 2012 c-1 -15 -6 -22 -17 -20 -14 3 -17 -7 -16 -64 1 -95 1 -95
11 -79 12 18 31 5 32 -22 1 -18 2 -18 6 -4 3 10 0 24 -6 31 -7 8 -7 16 -1 22
6 6 6 15 0 24 -8 12 -10 10 -10 -7 0 -33 -20 -28 -21 5 -2 51 3 76 18 87 8 6
13 20 10 31 -4 16 -5 16 -6 -4z"/>
<path d="M1845 2020 c4 -6 1 -18 -7 -27 -9 -12 -9 -14 -1 -9 7 4 21 2 32 -4
24 -12 30 -3 20 30 -7 24 -7 24 -8 3 -1 -28 -21 -31 -21 -3 0 11 -5 20 -11 20
-5 0 -7 -5 -4 -10z"/>
<path d="M1668 1977 c4 -42 2 -49 -15 -53 -16 -4 -19 -11 -15 -32 l6 -27 6 25
c3 14 11 26 18 26 37 4 37 4 23 13 -10 6 -12 21 -8 52 3 24 2 37 -2 30 -7 -11
-9 -11 -13 0 -3 8 -3 -8 0 -34z"/>
<path d="M1255 1990 c-2 -3 0 -12 6 -20 5 -8 9 -10 9 -4 0 6 10 16 23 21 21
10 21 11 -6 9 -16 0 -30 -3 -32 -6z"/>
<path d="M1325 1991 c-3 -5 -1 -12 5 -16 5 -3 10 1 10 9 0 18 -6 21 -15 7z"/>
<path d="M1806 1992 c-2 -4 -1 -14 5 -22 7 -12 9 -10 9 8 0 23 -5 28 -14 14z"/>
<path d="M1081 1954 c0 -11 3 -14 6 -6 3 7 2 16 -1 19 -3 4 -6 -2 -5 -13z"/>
<path d="M1118 1948 c-3 -15 -2 -27 1 -26 21 2 31 -5 31 -22 0 -14 5 -18 17
-13 14 5 13 9 -9 28 -15 12 -28 31 -30 41 -3 15 -5 13 -10 -8z"/>
<path d="M1162 1950 c0 -14 2 -19 5 -12 2 6 2 18 0 25 -3 6 -5 1 -5 -13z"/>
<path d="M1220 1954 c0 -8 5 -12 10 -9 6 4 8 11 5 16 -9 14 -15 11 -15 -7z"/>
<path d="M1441 1954 c0 -11 3 -14 6 -6 3 7 2 16 -1 19 -3 4 -6 -2 -5 -13z"/>
<path d="M1471 1953 c-1 -13 -6 -23 -13 -23 -9 0 -9 -3 0 -12 17 -17 30 2 21
32 -7 24 -7 24 -8 3z"/>
<path d="M1600 1956 c0 -9 5 -16 10 -16 6 0 10 4 10 9 0 6 -4 13 -10 16 -5 3
-10 -1 -10 -9z"/>
<path d="M1630 1955 c0 -16 16 -20 24 -6 3 5 -1 11 -9 15 -9 3 -15 0 -15 -9z"/>
<path d="M1777 1963 c-4 -3 -7 -13 -7 -22 1 -13 3 -13 11 2 11 19 8 33 -4 20z"/>
<path d="M1260 1935 c0 -8 4 -15 10 -15 5 0 7 7 4 15 -4 8 -8 15 -10 15 -2 0
-4 -7 -4 -15z"/>
<path d="M1840 1940 c0 -6 -6 -10 -13 -8 -13 3 -17 -3 -17 -24 0 -9 3 -10 8
-2 4 6 15 15 26 21 12 7 15 13 7 17 -6 4 -11 2 -11 -4z"/>
<path d="M1876 1932 c-3 -5 1 -9 9 -9 8 0 12 4 9 9 -3 4 -7 8 -9 8 -2 0 -6 -4
-9 -8z"/>
<path d="M1187 1873 c2 -37 -1 -60 -9 -65 -10 -6 -10 -8 0 -8 23 0 26 5 23 33
-1 17 2 27 11 27 10 0 10 2 -1 9 -8 5 -12 19 -9 35 3 15 1 26 -6 26 -7 0 -10
-20 -9 -57z"/>
<path d="M1227 1900 c3 -11 7 -20 9 -20 2 0 4 9 4 20 0 11 -4 20 -9 20 -5 0
-7 -9 -4 -20z"/>
<path d="M1120 1901 c0 -5 5 -13 10 -16 6 -3 10 -2 10 4 0 5 -4 13 -10 16 -5
3 -10 2 -10 -4z"/>
<path d="M1259 1888 c-4 -15 -2 -33 2 -40 7 -10 9 -10 9 0 0 17 19 15 27 -4 7
-20 -14 -44 -25 -28 -5 9 -11 8 -20 -2 -13 -15 -6 -19 26 -15 7 1 16 -8 22
-21 6 -16 9 -18 9 -6 1 9 -3 20 -9 23 -6 4 -5 13 3 26 10 17 9 23 -9 38 -12
10 -24 26 -26 37 -3 15 -5 14 -9 -8z"/>
<path d="M1291 1894 c0 -11 3 -14 6 -6 3 7 2 16 -1 19 -3 4 -6 -2 -5 -13z"/>
<path d="M1367 1889 c3 -11 12 -23 19 -26 8 -3 14 -20 14 -40 0 -19 4 -32 9
-29 4 3 6 17 3 31 -3 17 1 30 13 39 10 7 15 20 12 32 -4 17 -5 17 -6 -2 -1
-29 -51 -31 -51 -3 0 11 -4 19 -9 19 -5 0 -7 -9 -4 -21z"/>
<path d="M1500 1890 c0 -11 -4 -20 -10 -20 -5 0 -6 8 -3 17 5 14 3 13 -13 -3
-23 -22 -10 -38 18 -23 23 12 38 4 38 -21 0 -10 5 -22 11 -26 8 -4 8 -9 0 -17
-6 -6 -11 -18 -10 -26 1 -27 21 32 23 67 1 24 -3 32 -16 32 -11 0 -18 8 -18
20 0 11 -4 20 -10 20 -5 0 -10 -9 -10 -20z"/>
<path d="M1847 1890 c3 -11 7 -20 9 -20 2 0 4 9 4 20 0 11 -4 20 -9 20 -5 0
-7 -9 -4 -20z"/>
<path d="M1671 1876 c-8 -10 -9 -16 -1 -21 5 -3 10 -5 11 -3 4 18 7 38 4 38
-1 0 -8 -6 -14 -14z"/>
<path d="M1800 1870 c-12 -7 -10 -9 7 -7 12 0 19 5 17 9 -6 10 -6 10 -24 -2z"/>
<path d="M1120 1834 c0 -8 5 -12 10 -9 6 4 8 11 5 16 -9 14 -15 11 -15 -7z"/>
<path d="M1148 1827 c-3 -19 -2 -25 4 -19 6 6 8 18 6 28 -3 14 -5 12 -10 -9z"/>
<path d="M1220 1835 c0 -16 16 -20 24 -6 3 5 -1 11 -9 15 -9 3 -15 0 -15 -9z"/>
<path d="M1365 1837 c-4 -10 -5 -21 -1 -24 10 -10 18 4 13 24 -4 17 -4 17 -12
0z"/>
<path d="M1441 1834 c0 -11 3 -14 6 -6 3 7 2 16 -1 19 -3 4 -6 -2 -5 -13z"/>
<path d="M1500 1831 c0 -10 6 -21 13 -24 10 -4 13 2 9 19 -5 28 -22 32 -22 5z"/>
<path d="M1628 1828 c-2 -13 1 -31 7 -41 8 -14 6 -21 -9 -32 -10 -8 -22 -12
-26 -10 -4 2 -5 -7 -2 -20 2 -14 9 -25 14 -25 5 0 6 9 3 20 -4 11 -2 20 4 20
6 0 11 -9 11 -20 0 -11 5 -20 10 -20 14 0 13 23 -2 38 -14 14 1 16 21 3 9 -6
22 -6 32 0 10 5 25 6 33 3 20 -8 21 -50 1 -58 -23 -8 -45 4 -38 22 5 12 2 11
-13 -4 -11 -10 -17 -20 -12 -22 4 -2 5 -11 2 -20 -5 -15 -4 -15 6 1 15 23 29
21 40 -5 l9 -23 0 22 c1 16 7 21 24 21 12 -1 28 -6 35 -11 8 -6 12 -5 12 3 0
7 7 10 15 7 8 -4 17 -2 19 2 9 14 -6 21 -25 11 -30 -16 -51 -1 -47 34 2 25 -1
30 -15 28 -16 -3 -21 8 -18 37 2 7 -2 10 -8 6 -6 -3 -11 -14 -11 -24 0 -13 -8
-18 -25 -18 -20 0 -25 5 -25 24 0 17 4 23 14 20 13 -5 31 31 21 42 -3 2 -5 -2
-5 -10 0 -12 -2 -11 -11 1 -9 13 -10 13 -6 -2 6 -16 -20 -35 -31 -23 -3 3 0 5
6 5 7 0 12 9 12 20 0 27 -18 25 -22 -2z"/>
<path d="M1700 1828 c0 -12 3 -17 8 -12 4 5 11 12 15 15 5 3 2 9 -7 12 -12 5
-16 0 -16 -15z"/>
<path d="M1810 1830 c-1 -14 -1 -37 0 -52 1 -16 -4 -28 -10 -28 -7 0 -6 -5 2
-14 18 -19 22 -12 20 29 -2 23 2 35 10 35 9 0 10 2 2 8 -7 4 -14 16 -17 27 -4
17 -5 16 -7 -5z"/>
<path d="M1840 1835 c0 -8 4 -15 10 -15 5 0 7 7 4 15 -4 8 -8 15 -10 15 -2 0
-4 -7 -4 -15z"/>
<path d="M1737 1816 c-3 -8 -2 -18 3 -21 13 -8 20 9 11 24 -6 10 -10 9 -14 -3z"/>
<path d="M1048 1783 c5 -23 7 -25 10 -8 2 11 9 23 16 27 6 5 3 8 -10 8 -18 0
-20 -4 -16 -27z"/>
<path d="M1586 1803 c7 -4 14 -17 17 -28 5 -16 5 -15 4 4 -1 14 -9 26 -17 28
-10 3 -11 2 -4 -4z"/>
<path d="M1092 1775 c0 -16 2 -22 5 -12 2 9 2 23 0 30 -3 6 -5 -1 -5 -18z"/>
<path d="M1372 1780 c0 -14 2 -19 5 -12 2 6 2 18 0 25 -3 6 -5 1 -5 -13z"/>
<path d="M1020 1781 c0 -6 5 -13 10 -16 6 -3 10 1 10 9 0 9 -4 16 -10 16 -5 0
-10 -4 -10 -9z"/>
<path d="M1150 1776 c0 -8 5 -18 10 -21 6 -3 10 3 10 14 0 12 -4 21 -10 21 -5
0 -10 -6 -10 -14z"/>
<path d="M1221 1774 c0 -11 3 -14 6 -6 3 7 2 16 -1 19 -3 4 -6 -2 -5 -13z"/>
<path d="M1570 1775 c0 -8 5 -15 10 -15 6 0 10 7 10 15 0 8 -4 15 -10 15 -5 0
-10 -7 -10 -15z"/>
<path d="M1840 1770 c0 -5 5 -10 10 -10 6 0 10 5 10 10 0 6 -4 10 -10 10 -5 0
-10 -4 -10 -10z"/>
<path d="M1185 1750 c-6 -10 -4 -11 25 -14 24 -2 19 -41 -5 -41 -11 0 -19 -3
-17 -8 3 -11 25 -7 41 8 7 7 11 20 8 29 -8 21 -44 39 -52 26z"/>
<path d="M1025 1736 c-13 -9 -16 -19 -10 -32 8 -18 8 -18 13 1 2 11 9 26 14
33 14 16 6 15 -17 -2z"/>
<path d="M1060 1720 c0 -16 -3 -30 -7 -30 -5 0 -8 -16 -8 -35 0 -28 4 -35 20
-35 15 0 16 3 7 12 -13 13 -16 48 -4 48 4 0 7 16 7 35 0 19 -3 35 -7 35 -5 0
-8 -13 -8 -30z"/>
<path d="M1119 1721 c5 -25 6 -25 9 -3 4 27 27 24 27 -4 0 -13 -9 -20 -30 -24
-22 -4 -30 -11 -31 -28 -1 -19 -1 -19 3 -2 2 11 13 20 23 20 34 0 50 12 50 36
0 13 -3 25 -7 25 -46 8 -50 6 -44 -20z"/>
<path d="M1527 1702 c1 -25 4 -51 7 -58 3 -8 0 -14 -7 -14 -7 0 -8 -3 -2 -8
12 -9 15 -52 3 -52 -4 0 -9 10 -9 23 -1 17 -2 18 -6 4 -3 -11 5 -27 19 -40
l23 -22 -1 45 c-1 25 -5 53 -9 63 -4 9 -2 24 4 31 8 10 9 16 1 21 -14 9 -13
42 3 48 6 3 3 5 -8 4 -17 -1 -20 -7 -18 -45z"/>
<path d="M1570 1720 c0 -19 3 -21 12 -12 9 9 9 15 0 24 -9 9 -12 7 -12 -12z"/>
<path d="M1772 1720 c0 -14 2 -19 5 -12 2 6 2 18 0 25 -3 6 -5 1 -5 -13z"/>
<path d="M1081 1714 c0 -11 3 -14 6 -6 3 7 2 16 -1 19 -3 4 -6 -2 -5 -13z"/>
<path d="M1101 1714 c0 -11 3 -14 6 -6 3 7 2 16 -1 19 -3 4 -6 -2 -5 -13z"/>
<path d="M1436 1715 c4 -8 8 -15 10 -15 2 0 4 7 4 15 0 8 -4 15 -10 15 -5 0
-7 -7 -4 -15z"/>
<path d="M1701 1714 c0 -11 3 -14 6 -6 3 7 2 16 -1 19 -3 4 -6 -2 -5 -13z"/>
<path d="M1840 1721 c0 -6 5 -13 10 -16 6 -3 10 1 10 9 0 9 -4 16 -10 16 -5 0
-10 -4 -10 -9z"/>
<path d="M1618 1683 c6 -2 12 -13 12 -24 0 -10 5 -19 10 -19 6 0 10 6 10 13 0
16 -20 37 -34 36 -6 0 -5 -3 2 -6z"/>
<path d="M1020 1661 c0 -12 5 -21 10 -21 6 0 10 6 10 14 0 8 -4 18 -10 21 -5
3 -10 -3 -10 -14z"/>
<path d="M1155 1667 c-4 -10 -5 -21 -1 -24 10 -10 18 4 13 24 -4 17 -4 17 -12
0z"/>
<path d="M1570 1661 c0 -12 5 -21 10 -21 6 0 10 6 10 14 0 8 -4 18 -10 21 -5
3 -10 -3 -10 -14z"/>
<path d="M1122 1642 c-11 -25 -11 -25 4 -10 9 9 15 21 13 27 -2 6 -10 -2 -17
-17z"/>
<path d="M1220 1655 c0 -8 4 -15 8 -15 5 0 9 7 9 15 0 8 -4 15 -9 15 -4 0 -8
-7 -8 -15z"/>
<path d="M1511 1654 c0 -11 3 -14 6 -6 3 7 2 16 -1 19 -3 4 -6 -2 -5 -13z"/>
<path d="M1941 1654 c0 -11 3 -14 6 -6 3 7 2 16 -1 19 -3 4 -6 -2 -5 -13z"/>
<path d="M1775 1640 c-4 -6 -13 -9 -20 -6 -20 7 -48 -18 -42 -40 4 -17 5 -16
6 4 1 23 21 32 21 10 0 -10 2 -10 8 0 5 7 17 10 28 6 14 -4 15 -3 5 4 -11 8
-11 10 0 14 8 3 11 8 8 12 -4 4 -10 2 -14 -4z"/>
<path d="M1840 1640 c0 -5 5 -10 11 -10 5 0 7 5 4 10 -3 6 -8 10 -11 10 -2 0
-4 -4 -4 -10z"/>
<path d="M1189 1638 c0 -2 -3 -14 -5 -28 -4 -24 -4 -24 10 -5 12 16 17 18 28
7 10 -10 10 -17 -1 -35 -14 -22 -14 -22 8 -3 16 15 18 22 9 33 -11 14 -47 36
-49 31z"/>
<path d="M1400 1624 c0 -8 5 -12 10 -9 6 4 8 11 5 16 -9 14 -15 11 -15 -7z"/>
<path d="M1669 1637 c0 -1 -2 -13 -5 -27 -3 -17 -1 -21 5 -11 5 7 14 17 21 21
8 5 7 9 -4 13 -9 4 -16 5 -17 4z"/>
<path d="M1806 1631 c-4 -5 -2 -12 3 -15 5 -4 12 -2 15 3 4 5 2 12 -3 15 -5 4
-12 2 -15 -3z"/>
<path d="M1148 1600 c3 -21 -1 -29 -15 -33 -16 -4 -16 -5 0 -6 10 -1 17 -9 17
-21 0 -28 17 -25 22 4 4 19 1 23 -11 19 -13 -5 -14 -3 -3 8 16 17 15 46 -1 52
-10 4 -12 -3 -9 -23z"/>
<path d="M1618 1623 c6 -2 12 -13 12 -24 0 -10 5 -19 10 -19 6 0 10 6 10 13 0
16 -20 37 -34 36 -6 0 -5 -3 2 -6z"/>
<path d="M1015 1607 c-4 -10 -5 -21 -1 -24 10 -10 18 4 13 24 -4 17 -4 17 -12
0z"/>
<path d="M1090 1595 c0 -8 5 -15 10 -15 6 0 10 7 10 15 0 8 -4 15 -10 15 -5 0
-10 -7 -10 -15z"/>
<path d="M1120 1600 c0 -5 5 -10 11 -10 5 0 7 5 4 10 -3 6 -8 10 -11 10 -2 0
-4 -4 -4 -10z"/>
<path d="M1581 1594 c0 -11 3 -14 6 -6 3 7 2 16 -1 19 -3 4 -6 -2 -5 -13z"/>
<path d="M1742 1555 c-1 -19 0 -35 2 -35 8 0 13 49 6 60 -4 6 -7 -5 -8 -25z"/>
<path d="M1775 1580 c-3 -5 -1 -10 4 -10 6 0 11 5 11 10 0 6 -2 10 -4 10 -3 0
-8 -4 -11 -10z"/>
<path d="M1837 1577 c-9 -23 8 -41 22 -24 9 11 8 17 -3 26 -10 9 -15 8 -19 -2z"/>
<path d="M1047 1574 c-3 -3 -1 -18 4 -32 7 -18 6 -28 -3 -34 -9 -5 -6 -8 9 -8
20 0 21 3 12 32 -11 41 -11 41 1 33 6 -3 10 -15 10 -26 0 -10 5 -19 10 -19 16
0 11 26 -8 43 -20 18 -26 20 -35 11z"/>
<path d="M1191 1564 c0 -11 3 -14 6 -6 3 7 2 16 -1 19 -3 4 -6 -2 -5 -13z"/>
<path d="M1811 1564 c0 -11 3 -14 6 -6 3 7 2 16 -1 19 -3 4 -6 -2 -5 -13z"/>
<path d="M1881 1570 c0 -8 4 -22 9 -30 12 -18 12 -2 0 25 -6 13 -9 15 -9 5z"/>
<path d="M1016 1545 c-3 -9 0 -15 9 -15 16 0 20 16 6 24 -5 3 -11 -1 -15 -9z"/>
<path d="M1262 1540 c0 -14 2 -19 5 -12 2 6 2 18 0 25 -3 6 -5 1 -5 -13z"/>
<path d="M1632 1540 c0 -14 2 -19 5 -12 2 6 2 18 0 25 -3 6 -5 1 -5 -13z"/>
<path d="M1671 1539 c-1 -28 -24 -44 -44 -32 -7 4 -6 -1 2 -10 14 -18 7 -52
-9 -42 -5 3 -10 15 -10 25 0 10 -4 21 -9 25 -10 5 3 -52 13 -63 10 -9 36 20
36 39 0 13 7 19 23 19 13 0 28 5 35 12 14 14 16 48 4 48 -5 0 -8 -10 -8 -21 1
-33 -22 -34 -27 -2 l-4 28 -2 -26z"/>
<path d="M1770 1535 c0 -16 -6 -25 -15 -25 -8 0 -15 -4 -15 -10 0 -5 7 -7 15
-4 9 4 18 -2 24 -17 l10 -24 0 23 c1 12 -4 22 -10 22 -5 0 -7 6 -3 12 11 18
12 48 2 48 -4 0 -8 -11 -8 -25z"/>
<path d="M1910 1541 c0 -12 5 -21 10 -21 6 0 10 6 10 14 0 8 -4 18 -10 21 -5
3 -10 -3 -10 -14z"/>
<path d="M1131 1538 c0 -10 -10 -22 -21 -28 -21 -11 -28 -50 -9 -50 6 0 9 9 6
19 -3 12 1 22 10 25 20 8 33 -1 33 -25 0 -10 5 -19 10 -19 15 0 12 37 -4 43
-8 3 -16 16 -19 29 -3 14 -5 16 -6 6z"/>
<path d="M1220 1534 c0 -8 5 -12 10 -9 6 3 10 10 10 16 0 5 -4 9 -10 9 -5 0
-10 -7 -10 -16z"/>
<path d="M1570 1535 c0 -8 5 -15 10 -15 6 0 10 7 10 15 0 8 -4 15 -10 15 -5 0
-10 -7 -10 -15z"/>
<path d="M1185 1510 c-4 -6 3 -10 14 -10 25 0 27 6 6 13 -8 4 -17 2 -20 -3z"/>
<path d="M1326 1478 c1 -24 5 -42 10 -40 11 3 9 75 -2 79 -6 2 -9 -15 -8 -39z"/>
<path d="M1807 1513 c-2 -5 -1 -19 3 -33 l6 -25 6 28 c5 26 -5 47 -15 30z"/>
<path d="M1863 1507 c-14 -6 -23 -19 -22 -31 0 -20 1 -20 9 2 15 37 29 25 28
-23 0 -25 2 -49 6 -52 3 -4 6 3 6 15 0 12 6 22 13 22 8 0 8 3 -2 9 -8 6 -12
19 -9 35 6 32 0 37 -29 23z"/>
<path d="M1022 1485 c0 -16 2 -22 5 -12 2 9 2 23 0 30 -3 6 -5 -1 -5 -18z"/>
<path d="M1120 1480 c0 -5 5 -10 11 -10 5 0 7 5 4 10 -3 6 -8 10 -11 10 -2 0
-4 -4 -4 -10z"/>
<path d="M1290 1475 c0 -8 5 -15 10 -15 6 0 10 7 10 15 0 8 -4 15 -10 15 -5 0
-10 -7 -10 -15z"/>
<path d="M1570 1474 c0 -8 5 -12 10 -9 6 3 10 10 10 16 0 5 -4 9 -10 9 -5 0
-10 -7 -10 -16z"/>
<path d="M1710 1474 c0 -8 5 -12 10 -9 6 4 8 11 5 16 -9 14 -15 11 -15 -7z"/>
<path d="M1740 1461 c0 -5 -9 -13 -20 -16 -20 -6 -29 -45 -10 -45 6 0 10 7 8
16 -2 10 3 19 10 21 8 3 10 -2 6 -14 -5 -17 -5 -17 6 0 15 23 29 21 40 -5 l9
-23 0 23 c1 12 -3 22 -8 22 -5 0 -17 7 -25 16 -9 8 -16 11 -16 5z"/>
<path d="M1050 1450 c0 -5 5 -10 10 -10 6 0 10 5 10 10 0 6 -4 10 -10 10 -5 0
-10 -4 -10 -10z"/>
<path d="M1242 1444 c-22 -15 -30 -44 -12 -44 6 0 10 9 10 20 0 17 5 19 36 15
40 -5 40 -4 8 13 -16 9 -26 8 -42 -4z"/>
<path d="M1667 1453 c-2 -5 -1 -19 4 -33 8 -28 10 -27 13 13 2 25 -8 36 -17
20z"/>
<path d="M1088 1425 c3 -19 8 -23 15 -16 8 8 7 16 -5 27 -14 14 -15 14 -10
-11z"/>
<path d="M1808 1423 c2 -12 6 -23 7 -23 1 0 5 11 7 23 3 14 0 24 -7 24 -7 0
-10 -10 -7 -24z"/>
<path d="M1849 1438 c-6 -21 -5 -38 2 -38 5 0 9 9 9 20 0 16 -7 28 -11 18z"/>
<path d="M1911 1414 c0 -11 3 -14 6 -6 3 7 2 16 -1 19 -3 4 -6 -2 -5 -13z"/>
<path d="M985 1354 c0 -43 15 -45 16 -1 0 29 1 30 9 10 5 -13 11 -23 14 -23 2
0 6 10 8 23 3 18 -1 22 -21 24 -23 2 -26 -2 -26 -33z"/>
<path d="M1188 1383 c7 -3 16 -2 19 1 4 3 -2 6 -13 5 -11 0 -14 -3 -6 -6z"/>
<path d="M1735 1380 c4 -6 11 -8 16 -5 14 9 11 15 -7 15 -8 0 -12 -5 -9 -10z"/>
<path d="M1805 1380 c4 -6 11 -8 16 -5 14 9 11 15 -7 15 -8 0 -12 -5 -9 -10z"/>
<path d="M1876 1379 c2 -4 12 -5 21 -2 14 5 15 1 10 -28 -5 -26 -4 -30 4 -16
15 26 7 52 -18 53 -13 1 -20 -2 -17 -7z"/>
<path d="M1774 1360 c0 -11 4 -20 8 -20 4 0 8 9 8 20 0 11 -4 20 -8 20 -4 0
-8 -9 -8 -20z"/>
<path d="M1844 1360 c0 -11 4 -20 8 -20 4 0 8 9 8 20 0 11 -4 20 -8 20 -4 0
-8 -9 -8 -20z"/>
<path d="M1811 1334 c0 -11 3 -14 6 -6 3 7 2 16 -1 19 -3 4 -6 -2 -5 -13z"/>
<path d="M1883 1295 c0 -27 2 -38 4 -22 2 15 2 37 0 50 -2 12 -4 0 -4 -28z"/>
<path d="M1022 1300 c0 -14 2 -19 5 -12 2 6 2 18 0 25 -3 6 -5 1 -5 -13z"/>
<path d="M1922 1300 c0 -14 2 -19 5 -12 2 6 2 18 0 25 -3 6 -5 1 -5 -13z"/>
<path d="M1921 1244 c0 -11 3 -14 6 -6 3 7 2 16 -1 19 -3 4 -6 -2 -5 -13z"/>
<path d="M1910 1711 c0 -6 4 -13 10 -16 6 -3 7 1 4 9 -7 18 -14 21 -14 7z"/>
<path d="M10 2340 c13 -9 13 -10 0 -10 -13 0 -13 -1 0 -10 13 -9 13 -10 0 -10
-13 0 -13 -1 0 -10 13 -9 13 -10 0 -10 -13 0 -13 -1 0 -10 13 -9 13 -10 0 -11
-9 0 -6 -5 8 -11 l23 -12 -23 -12 c-14 -9 -17 -13 -8 -14 13 0 13 -1 0 -11
-12 -8 -10 -9 7 -4 18 5 21 2 18 -14 -2 -13 1 -18 9 -15 9 3 12 -4 10 -23 -1
-15 -3 -29 -4 -30 -1 -2 -3 -8 -4 -15 0 -6 -7 -13 -15 -16 -8 -3 -11 0 -7 7 5
7 1 9 -9 5 -13 -5 -10 -10 14 -25 16 -10 35 -28 41 -39 11 -21 12 -21 31 -4
24 21 25 8 2 -20 -17 -20 -17 -20 -1 -7 21 15 24 2 5 -19 -10 -12 -9 -12 3 -4
21 15 62 12 68 -5 3 -8 0 -11 -7 -7 -6 4 -9 2 -6 -6 4 -10 -3 -14 -20 -14 -19
0 -24 4 -20 16 4 10 3 12 -4 4 -8 -7 0 -37 25 -99 51 -127 70 -161 117 -212
49 -54 90 -77 119 -67 20 6 19 8 -14 25 -52 26 -110 97 -162 197 -25 48 -46
80 -46 72 0 -12 -3 -11 -11 3 -6 9 -7 27 -4 38 6 18 15 8 50 -59 53 -100 93
-157 136 -201 35 -34 87 -66 95 -58 3 2 -8 10 -24 16 -57 24 -140 128 -206
258 -28 57 -31 67 -16 58 6 -4 7 1 4 12 -4 13 0 11 16 -7 l22 -25 -16 27 c-21
35 -20 44 2 27 15 -13 16 -12 3 4 -8 9 -12 20 -9 22 3 3 39 -41 81 -97 94
-129 175 -218 218 -241 l34 -18 -30 22 c-56 42 -125 119 -210 233 -87 117
-102 144 -62 110 l22 -19 -19 23 c-11 12 -17 24 -14 27 3 3 41 -38 84 -92 90
-113 195 -226 239 -256 17 -11 -1 8 -38 43 -71 65 -292 328 -284 336 3 3 52
-51 111 -120 109 -129 204 -227 243 -253 20 -13 21 -17 8 -30 -8 -8 -21 -11
-27 -8 -7 4 -4 -1 6 -9 11 -9 25 -16 30 -16 6 0 4 5 -4 10 -14 9 -7 14 13 11
5 -1 6 2 3 7 -2 4 -1 14 3 21 7 10 13 10 30 2 17 -10 20 -9 14 5 -5 14 -3 15
15 5 27 -14 35 -28 22 -36 -6 -4 -8 -11 -5 -16 4 -5 3 -9 -2 -10 -4 0 -17 -2
-28 -4 -18 -3 -19 -3 -3 9 16 12 16 14 -6 24 -23 10 -24 9 -20 -14 2 -13 1
-24 -3 -25 -5 0 -18 -2 -30 -3 -12 -1 -20 1 -17 6 3 4 0 8 -5 8 -6 0 -11 -7
-11 -17 0 -14 -2 -15 -18 -1 -9 9 -28 21 -42 27 -21 10 -22 10 -8 -1 9 -7 24
-18 33 -23 20 -12 26 -10 -63 -19 -42 -4 -60 -11 -51 -21 5 -5 244 33 269 42
8 4 19 5 23 4 20 -4 183 23 192 32 7 7 6 8 -2 3 -30 -17 -34 7 -6 38 l28 31
-32 -29 c-18 -16 -31 -32 -28 -35 2 -4 -4 -7 -13 -7 -9 -1 -22 -3 -29 -5 -6
-2 -11 1 -11 6 -1 6 5 9 13 7 14 -3 95 84 95 102 0 6 -7 -1 -17 -14 -25 -38
-66 -80 -77 -80 -5 0 2 12 16 28 31 33 78 103 78 116 0 5 -17 -17 -39 -50 -21
-32 -50 -70 -64 -83 -15 -13 -24 -28 -21 -32 3 -5 -2 -6 -11 -3 -14 6 -11 13
17 43 l33 36 -37 -34 c-21 -19 -35 -38 -32 -43 5 -7 -3 -10 -23 -7 -5 1 -7 5
-5 10 1 5 -5 12 -13 15 -8 4 -15 11 -15 16 0 6 7 8 15 5 8 -4 17 -2 20 3 3 5
12 7 19 4 12 -5 46 31 70 74 16 28 -3 9 -28 -28 -14 -22 -31 -40 -37 -40 -5 0
-8 4 -5 8 8 13 -30 7 -48 -7 -9 -8 -21 -9 -30 -4 -12 7 -12 11 -1 26 8 12 15
14 20 8 3 -6 1 -11 -4 -11 -6 0 -11 -4 -11 -10 0 -20 15 -9 34 23 62 106 106
186 106 193 0 5 -23 -31 -51 -81 -51 -92 -65 -112 -73 -104 -2 2 11 30 30 63
19 32 33 60 31 62 -2 2 -14 -15 -27 -39 -33 -60 -61 -99 -67 -93 -3 3 15 41
41 84 48 82 219 442 213 449 -2 1 -41 -77 -86 -174 -88 -191 -159 -323 -173
-323 -5 0 -107 98 -226 219 -226 227 -293 286 -374 327 -47 24 -77 33 -48 14z
m59 -29 c21 -11 38 -27 38 -36 0 -8 -5 -14 -11 -12 -6 2 -11 9 -11 16 0 17
-27 31 -50 26 -11 -3 -14 -2 -6 1 11 5 11 8 0 15 -26 16 2 9 40 -10z m1 -22
c13 -9 12 -10 -3 -5 -11 3 -16 2 -12 -4 7 -12 3 -12 -20 -4 -13 5 -14 8 -3 15
17 11 20 11 38 -2z m120 -66 c92 -80 468 -463 456 -463 -6 -1 -105 95 -220
212 -121 122 -158 158 -89 83 66 -71 167 -174 223 -229 94 -91 100 -100 85
-115 -14 -14 -16 -14 -13 -1 2 9 -42 60 -102 120 -153 152 -351 368 -342 372
5 2 -5 14 -22 28 -16 14 -26 18 -21 10 5 -8 10 -18 10 -21 0 -8 235 -259 362
-386 61 -62 106 -113 99 -113 -17 0 -134 115 -268 265 -64 72 -139 152 -167
179 -27 27 -48 53 -45 57 2 4 -1 11 -7 15 -8 4 -7 9 2 16 11 8 11 9 -1 5 -8
-2 -14 -10 -12 -16 2 -13 -14 -15 -22 -2 -3 5 1 12 10 15 8 3 12 10 9 16 -15
24 15 6 75 -47z m-109 32 c1 -18 22 -36 36 -31 8 3 12 2 9 -2 -3 -5 22 -35 55
-68 34 -32 119 -125 189 -205 71 -80 155 -169 187 -197 32 -28 53 -51 46 -52
-21 0 -140 118 -260 258 -100 116 -140 149 -131 109 4 -19 -23 -77 -33 -71
-14 8 -10 26 4 18 7 -4 9 -3 4 2 -5 5 -14 9 -19 9 -6 0 -13 5 -15 12 -5 13 14
12 37 -2 13 -8 13 -6 2 8 -8 9 -17 16 -20 15 -4 0 -9 1 -12 2 -17 7 -62 5 -67
-3 -3 -6 -1 -7 5 -3 18 11 14 0 -5 -15 -10 -7 -15 -10 -11 -5 4 5 -4 17 -17
28 -15 12 -22 24 -18 31 4 7 8 15 9 20 1 4 3 9 4 12 1 3 3 13 4 23 1 9 5 23
10 31 6 9 5 12 0 8 -6 -3 -16 -2 -23 2 -10 6 -9 10 4 14 9 4 14 3 11 -2 -3 -5
2 -8 12 -7 9 0 16 -4 15 -10 -1 -6 14 -26 32 -44 19 -19 35 -38 35 -44 0 -5
-12 1 -26 15 -14 13 -29 23 -32 22 -4 -2 -7 1 -7 7 0 5 -5 14 -11 20 -8 8 -11
6 -11 -4 0 -8 4 -13 8 -11 6 4 5 -18 -1 -35 -1 -3 -2 -9 -1 -13 1 -5 -3 -6 -8
-3 -11 7 -8 -20 4 -31 4 -4 5 -3 2 3 -8 14 19 39 27 25 3 -5 14 -8 24 -6 9 1
23 -2 30 -8 6 -5 12 -6 12 -2 0 5 10 0 23 -11 l22 -19 -22 26 c-28 30 -31 49
-5 26 18 -17 32 -14 32 7 0 7 -3 6 -8 -1 -6 -9 -23 2 -57 37 -28 29 -43 50
-35 50 20 1 -19 24 -40 25 -9 0 -15 9 -14 22 1 13 -3 20 -7 17 -5 -3 -16 -1
-26 4 -13 8 -10 9 15 8 18 -1 33 -6 33 -11z m-31 -25 c-12 -8 -12 -10 -1 -10
8 0 12 -2 9 -5 -3 -3 -13 -2 -22 1 -14 5 -15 9 -4 15 7 5 18 9 23 9 6 0 3 -5
-5 -10z m90 -85 c19 -19 32 -35 29 -35 -3 0 -20 16 -39 35 -19 19 -32 35 -29
35 3 0 20 -16 39 -35z m-9 -42 c9 -9 7 -11 -7 -8 -11 2 -21 4 -24 5 -3 1 -9 2
-13 1 -5 -1 -6 3 -3 8 8 12 33 8 47 -6z m13 -55 c-3 -5 0 -16 7 -24 6 -8 9
-17 5 -21 -3 -3 -6 0 -6 8 0 11 -2 11 -10 -1 -5 -8 -10 -10 -11 -5 0 6 -2 19
-3 31 -1 11 3 21 10 21 7 0 11 -4 8 -9z m139 -364 c23 -26 55 -55 72 -65 35
-22 17 -26 -24 -5 -45 24 -97 89 -135 170 -49 103 -45 119 5 24 23 -43 60 -99
82 -124z m434 -28 c0 -8 -6 -12 -14 -9 -7 3 -10 9 -7 14 8 14 21 11 21 -5z"/>
<path d="M165 2150 c21 -22 41 -40 44 -40 3 0 -13 18 -34 40 -21 22 -41 40
-44 40 -3 0 13 -18 34 -40z"/>
<path d="M2190 2321 c-50 -27 -203 -211 -175 -211 2 0 16 11 31 25 15 14 22
25 16 25 -6 0 2 14 18 30 17 17 30 35 30 41 0 6 5 7 12 3 6 -4 9 -3 5 2 -3 5
32 11 81 12 48 2 89 6 92 9 3 3 -32 3 -77 1 -46 -3 -83 -1 -83 4 0 5 5 6 12 2
7 -4 8 -3 4 5 -6 8 0 10 21 6 25 -5 26 -4 6 4 -26 12 -31 24 -6 14 11 -4 14
-3 9 5 -5 8 3 10 26 7 27 -4 28 -3 8 3 -22 7 -23 9 -7 15 30 11 120 8 168 -6
61 -19 183 -81 168 -86 -7 -2 -2 -9 12 -18 33 -19 10 -13 -118 32 -65 23 -126
37 -170 40 l-68 4 63 -9 c77 -11 152 -32 249 -71 56 -22 79 -27 93 -19 28 15
38 12 16 -5 -14 -11 -16 -15 -5 -15 12 0 12 -2 -1 -10 -24 -15 2 -11 30 5 34
19 45 19 29 -2 -13 -15 -12 -15 10 -4 19 10 21 15 10 22 -8 5 -23 6 -34 3 -11
-4 -17 -3 -12 1 8 10 -142 91 -237 129 -80 32 -173 35 -226 7z m409 -105 c21
-12 21 -14 6 -20 -10 -3 -20 -4 -23 -1 -3 3 1 5 9 5 8 1 3 7 -11 15 -14 8 -20
14 -15 14 6 0 21 -6 34 -13z"/>
<path d="M2258 2313 c7 -3 16 -2 19 1 4 3 -2 6 -13 5 -11 0 -14 -3 -6 -6z"/>
<path d="M2365 2290 c39 -10 72 -16 73 -15 6 6 -100 35 -122 34 -12 0 11 -8
49 -19z"/>
<path d="M2872 2270 c0 -19 2 -27 5 -17 2 9 2 25 0 35 -3 9 -5 1 -5 -18z"/>
<path d="M2906 2275 c-3 -9 -6 -26 -5 -38 1 -14 4 -9 9 13 9 37 7 52 -4 25z"/>
<path d="M2470 2255 c14 -8 30 -14 35 -14 6 0 -1 6 -15 14 -14 8 -29 14 -35
14 -5 0 1 -6 15 -14z"/>
<path d="M2847 2243 c-4 -18 -15 -40 -27 -50 -14 -13 -16 -19 -7 -25 9 -6 8
-8 -3 -8 -8 -1 1 -9 20 -20 19 -11 28 -19 20 -20 -13 0 -13 -1 0 -10 12 -8 12
-10 -5 -10 -18 -1 -17 -2 4 -11 13 -5 26 -7 29 -4 3 3 -1 5 -9 5 -11 0 -11 2
1 10 21 14 33 12 24 -2 -4 -7 5 -2 19 11 28 25 35 37 16 25 -8 -4 -9 1 -5 17
6 21 5 21 -9 -3 -9 -16 -21 -28 -27 -28 -7 0 -6 6 3 18 11 14 11 15 -1 5 -25
-23 -32 -14 -11 13 12 15 21 32 21 38 0 6 -5 4 -10 -4 -8 -12 -10 -12 -10 -1
0 8 -9 2 -21 -13 -11 -14 -25 -26 -31 -26 -7 0 -1 12 13 27 13 14 18 23 12 19
-15 -9 -17 3 -3 24 8 12 10 12 10 1 0 -8 2 -12 5 -10 2 3 1 18 -4 35 l-7 29
-7 -32z m23 -88 c-7 -8 -17 -15 -23 -15 -5 0 -2 9 8 20 21 23 35 19 15 -5z"/>
<path d="M2936 2255 c-3 -9 -5 -31 -5 -48 1 -27 3 -24 9 13 8 48 6 61 -4 35z"/>
<path d="M2318 2243 c6 -2 18 -2 25 0 6 3 1 5 -13 5 -14 0 -19 -2 -12 -5z"/>
<path d="M2965 2239 c-4 -6 -5 -12 -2 -15 2 -3 7 2 10 11 7 17 1 20 -8 4z"/>
<path d="M2368 2233 c7 -3 16 -2 19 1 4 3 -2 6 -13 5 -11 0 -14 -3 -6 -6z"/>
<path d="M2158 2223 c12 -2 30 -2 40 0 9 3 -1 5 -23 4 -22 0 -30 -2 -17 -4z"/>
<path d="M2243 2223 c15 -2 37 -2 50 0 12 2 0 4 -28 4 -27 0 -38 -2 -22 -4z"/>
<path d="M2464 2204 c38 -13 71 -22 73 -20 5 5 -116 46 -131 45 -6 0 20 -11
58 -25z"/>
<path d="M2984 2216 c-3 -8 -4 -29 -2 -48 3 -29 4 -27 8 15 5 48 3 58 -6 33z"/>
<path d="M2385 2199 c39 -10 74 -17 80 -16 11 4 -118 37 -137 36 -7 0 19 -9
57 -20z"/>
<path d="M2188 2203 c12 -2 32 -2 45 0 12 2 2 4 -23 4 -25 0 -35 -2 -22 -4z"/>
<path d="M2118 2193 c6 -2 18 -2 25 0 6 3 1 5 -13 5 -14 0 -19 -2 -12 -5z"/>
<path d="M2273 2193 c9 -2 25 -2 35 0 9 3 1 5 -18 5 -19 0 -27 -2 -17 -5z"/>
<path d="M2087 2183 c-13 -12 -7 -23 11 -22 10 0 12 3 4 6 -6 2 -10 9 -6 14 6
10 0 12 -9 2z"/>
<path d="M2338 2183 c6 -2 18 -2 25 0 6 3 1 5 -13 5 -14 0 -19 -2 -12 -5z"/>
<path d="M882 2155 c-17 -37 -14 -45 4 -12 9 16 14 31 11 33 -2 2 -9 -7 -15
-21z"/>
<path d="M2158 2173 c23 -2 59 -2 80 0 20 2 1 4 -43 4 -44 0 -61 -2 -37 -4z"/>
<path d="M2400 2170 c34 -11 60 -11 35 0 -11 5 -29 8 -40 8 -16 0 -15 -2 5 -8z"/>
<path d="M2340 2155 c36 -8 72 -14 80 -13 27 1 -84 26 -115 26 -16 0 -1 -6 35
-13z"/>
<path d="M2525 2160 c11 -5 27 -9 35 -9 9 0 8 4 -5 9 -11 5 -27 9 -35 9 -9 0
-8 -4 5 -9z"/>
<path d="M2705 2149 c-16 -10 -25 -19 -20 -19 6 0 20 6 31 14 11 8 33 16 49
19 l30 4 -30 1 c-16 0 -43 -8 -60 -19z"/>
<path d="M2960 2156 c0 -8 -12 -29 -26 -48 l-26 -33 31 33 c27 28 41 62 26 62
-3 0 -5 -6 -5 -14z"/>
<path d="M14 2145 c-18 -15 -18 -15 0 -8 15 5 17 3 11 -8 -5 -8 -4 -11 0 -6 8
7 17 37 11 37 -1 0 -11 -7 -22 -15z"/>
<path d="M2468 2153 c7 -3 16 -2 19 1 4 3 -2 6 -13 5 -11 0 -14 -3 -6 -6z"/>
<path d="M2071 2141 c-10 -6 1 -8 30 -4 24 3 46 7 48 9 10 9 -65 3 -78 -5z"/>
<path d="M2223 2143 c15 -2 37 -2 50 0 12 2 0 4 -28 4 -27 0 -38 -2 -22 -4z"/>
<path d="M2515 2140 c11 -5 27 -9 35 -9 9 0 8 4 -5 9 -11 5 -27 9 -35 9 -9 0
-8 -4 5 -9z"/>
<path d="M2625 2140 c-13 -6 -15 -9 -5 -9 8 0 22 4 30 9 18 12 2 12 -25 0z"/>
<path d="M2313 2133 c9 -2 23 -2 30 0 6 3 -1 5 -18 5 -16 0 -22 -2 -12 -5z"/>
<path d="M2448 2133 c7 -3 16 -2 19 1 4 3 -2 6 -13 5 -11 0 -14 -3 -6 -6z"/>
<path d="M2736 2131 c-11 -4 4 -7 37 -7 30 1 50 4 44 8 -15 10 -56 9 -81 -1z"/>
<path d="M2138 2123 c18 -2 45 -2 60 0 15 2 0 4 -33 4 -33 0 -45 -2 -27 -4z"/>
<path d="M2385 2120 c17 -4 39 -8 50 -8 16 0 15 2 -5 8 -14 4 -36 8 -50 8 -22
0 -22 -1 5 -8z"/>
<path d="M2488 2123 c7 -3 16 -2 19 1 4 3 -2 6 -13 5 -11 0 -14 -3 -6 -6z"/>
<path d="M2578 2123 c7 -3 16 -2 19 1 4 3 -2 6 -13 5 -11 0 -14 -3 -6 -6z"/>
<path d="M2975 2098 c-11 -17 -27 -34 -35 -36 -9 -3 -5 6 10 24 l25 28 -33
-27 c-19 -15 -39 -27 -45 -27 -7 0 -6 -4 3 -10 13 -9 13 -10 0 -10 -11 -1 -11
-3 3 -11 10 -6 21 -8 24 -5 4 3 0 6 -8 6 -11 0 -11 2 1 10 20 13 33 13 24 -1
-11 -18 30 7 47 28 13 17 13 17 -7 1 -33 -28 -38 -21 -10 13 14 17 26 35 26
40 0 14 -3 11 -25 -23z"/>
<path d="M857 2038 c-20 -45 -35 -83 -33 -85 1 -2 20 33 40 78 21 44 36 83 34
85 -2 2 -21 -33 -41 -78z"/>
<path d="M2050 2070 c0 -27 -4 -50 -10 -50 -5 0 -9 -17 -8 -37 1 -37 1 -37 5
-5 l4 32 117 2 117 2 -107 3 c-100 3 -108 5 -108 23 0 15 7 20 28 21 16 1 20
3 10 6 -43 11 -11 22 70 26 l87 3 -92 2 c-80 2 -92 0 -96 -15 -4 -14 -5 -13
-6 4 -1 13 6 23 17 26 13 4 11 5 -5 6 -21 1 -23 -3 -23 -49z"/>
<path d="M2258 2113 c12 -2 30 -2 40 0 9 3 -1 5 -23 4 -22 0 -30 -2 -17 -4z"/>
<path d="M2540 2110 c14 -4 34 -8 45 -8 16 0 15 2 -5 8 -14 4 -34 8 -45 8 -16
0 -15 -2 5 -8z"/>
<path d="M2618 2113 c7 -3 16 -2 19 1 4 3 -2 6 -13 5 -11 0 -14 -3 -6 -6z"/>
<path d="M857 2098 c-3 -7 -26 -57 -51 -110 -25 -54 -43 -98 -40 -98 6 0 105
212 100 217 -2 2 -6 -2 -9 -9z"/>
<path d="M2031 2094 c0 -11 3 -14 6 -6 3 7 2 16 -1 19 -3 4 -6 -2 -5 -13z"/>
<path d="M2333 2103 c9 -2 23 -2 30 0 6 3 -1 5 -18 5 -16 0 -22 -2 -12 -5z"/>
<path d="M2468 2103 c6 -2 18 -2 25 0 6 3 1 5 -13 5 -14 0 -19 -2 -12 -5z"/>
<path d="M2658 2103 c7 -3 16 -2 19 1 4 3 -2 6 -13 5 -11 0 -14 -3 -6 -6z"/>
<path d="M2700 2094 l-45 -14 40 7 c22 3 60 9 85 13 l45 7 -40 1 c-22 0 -60
-6 -85 -14z"/>
<path d="M2393 2093 c9 -2 23 -2 30 0 6 3 -1 5 -18 5 -16 0 -22 -2 -12 -5z"/>
<path d="M2530 2090 c14 -4 34 -8 45 -8 16 0 15 2 -5 8 -14 4 -34 8 -45 8 -16
0 -15 -2 5 -8z"/>
<path d="M2618 2093 c7 -3 16 -2 19 1 4 3 -2 6 -13 5 -11 0 -14 -3 -6 -6z"/>
<path d="M2288 2083 c12 -2 30 -2 40 0 9 3 -1 5 -23 4 -22 0 -30 -2 -17 -4z"/>
<path d="M2448 2083 c6 -2 18 -2 25 0 6 3 1 5 -13 5 -14 0 -19 -2 -12 -5z"/>
<path d="M896 2065 c-9 -26 -7 -32 5 -12 6 10 9 21 6 23 -2 3 -7 -2 -11 -11z"/>
<path d="M2385 2069 c51 -10 92 -10 50 1 -16 4 -43 8 -60 8 -25 0 -24 -2 10
-9z"/>
<path d="M2503 2073 c9 -2 23 -2 30 0 6 3 -1 5 -18 5 -16 0 -22 -2 -12 -5z"/>
<path d="M2618 2073 c6 -2 18 -2 25 0 6 3 1 5 -13 5 -14 0 -19 -2 -12 -5z"/>
<path d="M2735 2075 c23 -8 149 -12 130 -4 -11 4 -47 8 -80 8 -33 -1 -55 -2
-50 -4z"/>
<path d="M2208 2063 c18 -2 45 -2 60 0 15 2 0 4 -33 4 -33 0 -45 -2 -27 -4z"/>
<path d="M2558 2063 c6 -2 18 -2 25 0 6 3 1 5 -13 5 -14 0 -19 -2 -12 -5z"/>
<path d="M2678 2063 c6 -2 18 -2 25 0 6 3 1 5 -13 5 -14 0 -19 -2 -12 -5z"/>
<path d="M2323 2053 c9 -2 25 -2 35 0 9 3 1 5 -18 5 -19 0 -27 -2 -17 -5z"/>
<path d="M2483 2053 c9 -2 23 -2 30 0 6 3 -1 5 -18 5 -16 0 -22 -2 -12 -5z"/>
<path d="M2618 2053 c6 -2 18 -2 25 0 6 3 1 5 -13 5 -14 0 -19 -2 -12 -5z"/>
<path d="M2768 2053 c12 -2 32 -2 45 0 12 2 2 4 -23 4 -25 0 -35 -2 -22 -4z"/>
<path d="M2108 2043 c23 -2 59 -2 80 0 20 2 1 4 -43 4 -44 0 -61 -2 -37 -4z"/>
<path d="M2393 2043 c9 -2 25 -2 35 0 9 3 1 5 -18 5 -19 0 -27 -2 -17 -5z"/>
<path d="M2548 2043 c6 -2 18 -2 25 0 6 3 1 5 -13 5 -14 0 -19 -2 -12 -5z"/>
<path d="M2688 2043 c12 -2 30 -2 40 0 9 3 -1 5 -23 4 -22 0 -30 -2 -17 -4z"/>
<path d="M2848 2043 c6 -2 18 -2 25 0 6 3 1 5 -13 5 -14 0 -19 -2 -12 -5z"/>
<path d="M2965 2029 c-17 -10 -23 -19 -15 -19 13 0 13 -1 0 -10 -24 -15 2 -11
30 5 14 8 19 14 11 15 -11 0 -11 3 -1 15 16 19 12 18 -25 -6z"/>
<path d="M2018 2033 c7 -3 16 -2 19 1 4 3 -2 6 -13 5 -11 0 -14 -3 -6 -6z"/>
<path d="M2263 2033 c15 -2 37 -2 50 0 12 2 0 4 -28 4 -27 0 -38 -2 -22 -4z"/>
<path d="M2463 2033 c9 -2 25 -2 35 0 9 3 1 5 -18 5 -19 0 -27 -2 -17 -5z"/>
<path d="M2613 2033 c9 -2 25 -2 35 0 9 3 1 5 -18 5 -19 0 -27 -2 -17 -5z"/>
<path d="M852 1964 c-18 -35 -32 -68 -32 -72 1 -4 17 24 36 62 19 37 34 70 32
72 -2 2 -18 -26 -36 -62z"/>
<path d="M2358 2023 c12 -2 30 -2 40 0 9 3 -1 5 -23 4 -22 0 -30 -2 -17 -4z"/>
<path d="M2533 2023 c9 -2 25 -2 35 0 9 3 1 5 -18 5 -19 0 -27 -2 -17 -5z"/>
<path d="M2703 2023 c15 -2 37 -2 50 0 12 2 0 4 -28 4 -27 0 -38 -2 -22 -4z"/>
<path d="M2801 2026 c2 -2 27 -6 54 -9 32 -4 43 -3 30 3 -19 8 -93 14 -84 6z"/>
<path d="M2438 2013 c12 -2 30 -2 40 0 9 3 -1 5 -23 4 -22 0 -30 -2 -17 -4z"/>
<path d="M2608 2013 c12 -2 30 -2 40 0 9 3 -1 5 -23 4 -22 0 -30 -2 -17 -4z"/>
<path d="M2313 2003 c15 -2 37 -2 50 0 12 2 0 4 -28 4 -27 0 -38 -2 -22 -4z"/>
<path d="M2518 2003 c12 -2 30 -2 40 0 9 3 -1 5 -23 4 -22 0 -30 -2 -17 -4z"/>
<path d="M2728 2003 c23 -2 61 -2 85 0 23 2 4 4 -43 4 -47 0 -66 -2 -42 -4z"/>
<path d="M2081 1978 c0 -13 7 -45 15 -73 12 -45 13 -46 8 -10 -3 22 -8 52 -11
67 -5 26 -3 27 43 31 l49 3 -52 2 c-49 2 -53 0 -52 -20z"/>
<path d="M2408 1993 c12 -2 30 -2 40 0 9 3 -1 5 -23 4 -22 0 -30 -2 -17 -4z"/>
<path d="M2608 1993 c12 -2 30 -2 40 0 9 3 -1 5 -23 4 -22 0 -30 -2 -17 -4z"/>
<path d="M2880 1990 c34 -11 60 -11 35 0 -11 5 -29 8 -40 8 -16 0 -15 -2 5 -8z"/>
<path d="M2980 1990 c-9 -6 -10 -10 -3 -10 6 0 15 5 18 10 8 12 4 12 -15 0z"/>
<path d="M312 1908 c80 -103 162 -192 202 -219 17 -12 6 1 -25 29 -30 28 -95
100 -143 161 -49 61 -90 111 -93 111 -2 0 24 -37 59 -82z"/>
<path d="M859 1918 c-19 -39 -49 -97 -67 -127 -18 -32 -23 -45 -11 -31 23 28
122 220 116 226 -2 2 -19 -29 -38 -68z"/>
<path d="M2217 1983 c18 -2 50 -2 70 0 21 2 7 4 -32 4 -38 0 -55 -2 -38 -4z"/>
<path d="M2498 1983 c12 -2 30 -2 40 0 9 3 -1 5 -23 4 -22 0 -30 -2 -17 -4z"/>
<path d="M2728 1983 c17 -2 47 -2 65 0 17 2 3 4 -33 4 -36 0 -50 -2 -32 -4z"/>
<path d="M2839 1977 c5 -5 19 -7 32 -5 20 3 19 5 -9 9 -20 3 -29 2 -23 -4z"/>
<path d="M2353 1973 c15 -2 39 -2 55 0 15 2 2 4 -28 4 -30 0 -43 -2 -27 -4z"/>
<path d="M2593 1973 c15 -2 39 -2 55 0 15 2 2 4 -28 4 -30 0 -43 -2 -27 -4z"/>
<path d="M2012 1940 c0 -19 2 -27 5 -17 2 9 2 25 0 35 -3 9 -5 1 -5 -18z"/>
<path d="M2062 1950 c0 -14 4 -38 8 -55 7 -27 8 -27 8 -5 0 14 -4 39 -8 55 -7
27 -8 27 -8 5z"/>
<path d="M2500 1960 c57 -8 176 -13 169 -6 -2 2 -53 6 -114 9 -75 3 -92 2 -55
-3z"/>
<path d="M2728 1963 c7 -3 16 -2 19 1 4 3 -2 6 -13 5 -11 0 -14 -3 -6 -6z"/>
<path d="M2768 1963 c6 -2 18 -2 25 0 6 3 1 5 -13 5 -14 0 -19 -2 -12 -5z"/>
<path d="M2908 1963 c7 -3 16 -2 19 1 4 3 -2 6 -13 5 -11 0 -14 -3 -6 -6z"/>
<path d="M226 1950 c44 -79 171 -237 216 -270 19 -13 8 2 -26 36 -32 32 -85
97 -118 144 -58 82 -91 123 -72 90z"/>
<path d="M2838 1953 c12 -2 30 -2 40 0 9 3 -1 5 -23 4 -22 0 -30 -2 -17 -4z"/>
<path d="M867 1875 c-20 -41 -35 -75 -32 -75 7 0 77 141 73 146 -2 2 -21 -30
-41 -71z"/>
<path d="M2723 1943 c15 -2 37 -2 50 0 12 2 0 4 -28 4 -27 0 -38 -2 -22 -4z"/>
<path d="M2041 1914 c1 -16 5 -40 9 -54 6 -17 7 -9 3 25 -6 56 -14 74 -12 29z"/>
<path d="M205 1900 c9 -16 18 -30 21 -30 2 0 -2 14 -11 30 -9 17 -18 30 -21
30 -2 0 2 -13 11 -30z"/>
<path d="M238 1888 c60 -96 142 -194 191 -229 30 -21 48 -39 41 -39 -7 0 -11
-2 -8 -5 3 -3 13 -3 22 1 13 5 7 12 -26 34 -56 35 -124 109 -183 198 -48 72
-76 102 -37 40z"/>
<path d="M2022 1880 c0 -14 4 -36 8 -50 6 -20 8 -21 8 -5 0 11 -4 34 -8 50 -7
27 -8 27 -8 5z"/>
<path d="M864 1814 c-23 -41 -38 -71 -33 -68 11 6 82 134 78 138 -2 2 -23 -29
-45 -70z"/>
<path d="M789 1838 c-12 -24 -30 -56 -41 -73 l-20 -30 22 25 c23 26 74 120 65
120 -2 0 -14 -19 -26 -42z"/>
<path d="M251 1823 c49 -83 117 -159 164 -185 11 -6 -6 12 -38 41 -31 29 -76
82 -98 117 -45 69 -65 88 -28 27z"/>
<path d="M2081 1844 c0 -11 3 -14 6 -6 3 7 2 16 -1 19 -3 4 -6 -2 -5 -13z"/>
<path d="M2111 1840 c-1 -8 28 -118 64 -245 35 -126 64 -223 64 -215 1 8 -28
119 -64 245 -35 127 -64 223 -64 215z"/>
<path d="M2062 1815 c0 -11 3 -29 8 -40 11 -25 11 1 0 35 -6 20 -8 21 -8 5z"/>
<path d="M2092 1805 c0 -11 3 -29 8 -40 11 -25 11 1 0 35 -6 20 -8 21 -8 5z"/>
<path d="M2011 1794 c0 -11 3 -14 6 -6 3 7 2 16 -1 19 -3 4 -6 -2 -5 -13z"/>
<path d="M2041 1784 c0 -11 3 -14 6 -6 3 7 2 16 -1 19 -3 4 -6 -2 -5 -13z"/>
<path d="M2021 1754 c0 -11 3 -14 6 -6 3 7 2 16 -1 19 -3 4 -6 -2 -5 -13z"/>
<path d="M2055 1735 c9 -45 68 -236 72 -231 3 3 -61 227 -72 251 -3 6 -3 -3 0
-20z"/>
<path d="M2081 1740 c0 -8 4 -24 9 -35 5 -13 9 -14 9 -5 0 8 -4 24 -9 35 -5
13 -9 14 -9 5z"/>
<path d="M2111 1730 c0 -8 4 -24 9 -35 5 -13 9 -14 9 -5 0 8 -4 24 -9 35 -5
13 -9 14 -9 5z"/>
<path d="M2031 1720 c0 -8 4 -24 9 -35 5 -13 9 -14 9 -5 0 8 -4 24 -9 35 -5
13 -9 14 -9 5z"/>
<path d="M2101 1670 c0 -8 4 -24 9 -35 5 -13 9 -14 9 -5 0 8 -4 24 -9 35 -5
13 -9 14 -9 5z"/>
<path d="M2021 1660 c0 -8 4 -24 9 -35 5 -13 9 -14 9 -5 0 8 -4 24 -9 35 -5
13 -9 14 -9 5z"/>
<path d="M2131 1660 c0 -8 4 -24 9 -35 5 -13 9 -14 9 -5 0 8 -4 24 -9 35 -5
13 -9 14 -9 5z"/>
<path d="M2052 1650 c0 -8 8 -37 18 -65 10 -27 18 -43 18 -35 0 8 -8 38 -18
65 -10 28 -18 43 -18 35z"/>
<path d="M2122 1600 c0 -8 6 -31 13 -50 7 -19 13 -28 13 -20 0 8 -6 31 -13 50
-7 19 -13 28 -13 20z"/>
<path d="M2151 1590 c0 -8 4 -24 9 -35 5 -13 9 -14 9 -5 0 8 -4 24 -9 35 -5
13 -9 14 -9 5z"/>
<path d="M2021 1575 c-1 -6 19 -69 43 -140 25 -72 45 -125 45 -120 1 6 -19 69
-43 140 -25 72 -45 125 -45 120z"/>
<path d="M2051 1565 c-1 -6 14 -56 33 -110 19 -55 35 -95 35 -90 1 6 -14 56
-33 110 -19 55 -35 95 -35 90z"/>
<path d="M2011 1525 c-1 -6 19 -69 43 -140 25 -72 45 -125 45 -120 1 6 -19 69
-43 140 -25 72 -45 125 -45 120z"/>
<path d="M2171 1520 c0 -8 4 -24 9 -35 5 -13 9 -14 9 -5 0 8 -4 24 -9 35 -5
13 -9 14 -9 5z"/>
<path d="M2151 1500 c0 -8 4 -24 9 -35 5 -13 9 -14 9 -5 0 8 -4 24 -9 35 -5
13 -9 14 -9 5z"/>
<path d="M2102 1490 c0 -8 6 -31 13 -50 7 -19 13 -28 13 -20 0 8 -6 31 -13 50
-7 19 -13 28 -13 20z"/>
<path d="M2131 1480 c0 -8 4 -24 9 -35 5 -13 9 -14 9 -5 0 8 -4 24 -9 35 -5
13 -9 14 -9 5z"/>
<path d="M2191 1455 c0 -5 6 -32 13 -60 8 -27 14 -41 14 -30 0 21 -25 107 -27
90z"/>
<path d="M2011 1440 c0 -8 4 -22 9 -30 12 -18 12 -2 0 25 -6 13 -9 15 -9 5z"/>
<path d="M2176 1410 c4 -19 11 -44 15 -55 6 -14 7 -9 3 15 -4 19 -11 44 -15
55 -6 14 -7 9 -3 -15z"/>
<path d="M2151 1410 c0 -8 4 -24 9 -35 5 -13 9 -14 9 -5 0 8 -4 24 -9 35 -5
13 -9 14 -9 5z"/>
<path d="M2031 1380 c0 -8 4 -22 9 -30 12 -18 12 -2 0 25 -6 13 -9 15 -9 5z"/>
<path d="M2015 1352 c19 -64 54 -156 54 -146 1 14 -47 155 -55 163 -4 3 -3 -5
1 -17z"/>
<path d="M2141 1365 c0 -5 6 -32 13 -60 8 -27 14 -41 14 -30 0 21 -25 107 -27
90z"/>
<path d="M2242 1345 c0 -11 4 -33 8 -50 7 -27 8 -27 8 -5 0 14 -4 36 -8 50 -6
20 -8 21 -8 5z"/>
<path d="M2126 1320 c4 -19 11 -44 15 -55 6 -14 7 -9 3 15 -4 19 -11 44 -15
55 -6 14 -7 9 -3 -15z"/>
<path d="M2171 1334 c0 -11 3 -14 6 -6 3 7 2 16 -1 19 -3 4 -6 -2 -5 -13z"/>
<path d="M2221 1324 c0 -11 3 -14 6 -6 3 7 2 16 -1 19 -3 4 -6 -2 -5 -13z"/>
<path d="M2202 1310 c0 -14 2 -19 5 -12 2 6 2 18 0 25 -3 6 -5 1 -5 -13z"/>
<path d="M2182 1295 c0 -11 4 -31 8 -45 6 -20 8 -21 8 -5 0 11 -4 31 -8 45 -6
20 -8 21 -8 5z"/>
<path d="M2111 1295 c0 -5 6 -32 13 -60 8 -27 14 -41 14 -30 0 21 -25 107 -27
90z"/>
<path d="M2232 1275 c0 -16 2 -22 5 -12 2 9 2 23 0 30 -3 6 -5 -1 -5 -18z"/>
<path d="M2212 1260 c0 -14 2 -19 5 -12 2 6 2 18 0 25 -3 6 -5 1 -5 -13z"/>
<path d="M1378 1254 c-54 -16 -107 -74 -128 -138 -14 -43 -7 -153 11 -171 8
-7 9 9 4 58 -10 88 11 133 62 139 18 2 34 1 35 -4 3 -9 31 -9 146 -4 71 4 84
2 90 -12 3 -10 11 -22 18 -29 18 -19 10 -188 -12 -243 -10 -25 -21 -47 -25
-50 -4 -3 -12 -24 -18 -47 -7 -24 -14 -43 -17 -43 -4 0 -4 7 0 15 3 8 1 15 -4
15 -6 0 -10 -4 -10 -9 0 -5 -7 -17 -16 -25 -14 -15 -14 -16 0 -16 21 0 20 -14
-1 -31 -15 -12 -16 -12 -8 1 8 13 7 13 -8 1 -19 -15 -100 -23 -91 -9 3 4 -2
11 -10 14 -9 3 -14 9 -12 13 2 3 -1 17 -8 30 -9 15 -16 20 -20 12 -10 -16 -26
-14 -20 3 3 8 -11 47 -30 87 -20 40 -36 81 -36 91 0 17 -28 58 -40 58 -3 0 -4
-17 -4 -39 2 -42 24 -111 35 -111 5 0 1 16 -7 35 -16 40 -19 79 -4 70 6 -4 10
-14 8 -23 -1 -10 0 -21 3 -27 4 -5 15 -41 25 -80 26 -97 80 -159 147 -168 53
-7 85 8 116 56 21 31 26 35 34 22 11 -20 12 -109 2 -153 -6 -27 -15 -37 -52
-53 -25 -10 -49 -17 -54 -13 -5 3 -9 -9 -9 -25 0 -17 5 -31 11 -31 5 0 7 5 4
10 -9 15 4 32 18 23 19 -12 36 -12 44 -1 4 7 -2 9 -16 5 -19 -4 -20 -3 -10 9
7 8 18 13 25 10 13 -5 44 24 44 41 0 6 15 21 33 32 18 11 42 30 53 43 l19 22
-32 -23 c-18 -12 -35 -26 -38 -31 -12 -20 -26 -10 -15 10 7 12 8 39 4 65 -3
25 -3 45 1 45 4 0 24 -13 45 -30 44 -35 47 -35 72 -13 25 23 28 15 13 -31 -7
-21 -9 -34 -3 -28 7 7 16 4 30 -10 11 -11 16 -23 12 -27 -5 -4 -43 -18 -84
-30 -73 -23 -150 -65 -150 -82 0 -15 16 -10 35 11 14 16 20 17 27 8 6 -10 8
-8 8 4 0 22 18 31 108 53 68 18 73 18 89 2 16 -16 15 -19 -12 -47 -16 -17 -35
-28 -42 -26 -7 3 -13 -2 -13 -10 0 -8 -5 -12 -11 -8 -7 4 -8 19 -5 37 4 20 3
28 -3 22 -5 -6 -11 -28 -13 -50 -2 -26 -7 -39 -16 -37 -7 1 -21 -5 -30 -14
-10 -11 -17 -13 -20 -5 -2 6 -8 11 -13 11 -6 0 -8 -4 -5 -8 2 -4 1 -14 -5 -22
-7 -12 -9 -9 -9 10 -1 25 -1 25 -10 2 -5 -12 -14 -22 -19 -22 -5 0 -16 -3 -24
-6 -11 -4 -17 2 -20 23 l-4 28 -2 -26 c-1 -35 -40 -49 -42 -16 -1 20 -2 20 -9
-3 -7 -21 -8 -22 -9 -5 -1 15 -3 17 -10 6 -5 -7 -14 -10 -20 -7 -6 4 -11 1
-12 -6 0 -7 -4 -4 -9 7 -8 18 -9 18 -9 2 -1 -10 -5 -16 -10 -13 -5 3 -24 8
-42 11 -106 15 -139 33 -139 74 l-1 26 -12 -23 c-12 -21 -14 -21 -31 -5 -14
13 -17 14 -12 3 4 -8 -1 -5 -12 7 -11 12 -23 19 -27 15 -5 -4 -5 1 -2 11 4 11
10 30 13 44 4 16 11 22 21 19 8 -4 26 -9 39 -12 19 -5 22 -9 14 -24 -6 -11 -6
-21 -1 -24 5 -3 11 3 14 13 4 18 7 19 48 4 24 -8 52 -22 62 -30 18 -17 21 -10
7 22 -5 11 -9 14 -9 6 -1 -9 -5 -10 -13 -4 -11 8 -129 52 -187 69 -11 4 -10 8
4 24 10 11 15 20 11 20 -4 0 -1 6 6 14 9 10 15 11 20 2 4 -6 8 -6 8 -1 -1 6
-7 19 -15 29 -22 30 -18 43 5 18 12 -12 23 -22 27 -22 7 0 87 71 91 82 5 11
-86 -2 -126 -18 -27 -11 -32 -17 -27 -36 3 -14 -3 -39 -15 -63 -24 -47 -25
-65 -5 -65 18 0 18 -8 1 -39 -9 -16 -16 -20 -20 -12 -4 7 -2 18 4 26 17 20
-11 31 -40 15 l-22 -12 28 -29 c119 -124 328 -185 498 -145 88 21 189 74 257
135 l53 48 -26 14 c-42 23 -76 72 -80 114 l-3 39 -60 13 c-33 7 -75 12 -92 13
-30 0 -33 3 -33 29 0 54 13 94 32 98 10 3 18 13 18 22 0 14 -2 14 -10 1 -8
-12 -10 -11 -10 7 0 23 19 43 21 21 2 -23 17 36 18 70 1 21 -4 32 -13 32 -10
0 -11 11 -5 50 16 104 -43 208 -134 235 -60 18 -68 18 -129 -1z m95 -18 c-3
-4 4 -5 15 -2 24 8 92 -46 91 -73 0 -13 -2 -13 -6 -1 -6 17 -32 40 -46 40 -5
0 1 -9 14 -20 20 -16 21 -19 7 -20 -10 0 -18 5 -18 10 0 7 -6 7 -19 0 -13 -7
-22 -7 -26 0 -3 5 1 10 9 10 9 0 16 4 16 10 0 5 -7 6 -17 3 -12 -5 -14 -3 -8
7 5 9 4 11 -3 6 -7 -4 -12 -2 -12 5 0 7 -3 9 -6 6 -4 -3 -15 -2 -25 4 -11 5
-19 7 -19 5 0 -3 13 -12 30 -21 41 -21 30 -47 -19 -44 -20 2 -41 0 -46 -3 -15
-9 -51 7 -37 16 7 4 10 12 6 17 -3 6 3 13 14 16 13 3 18 11 15 19 -3 8 0 14 6
14 6 0 11 -5 11 -11 0 -6 5 -5 13 3 15 14 68 18 60 4z m-140 -63 c-9 -23 -20
-14 -15 13 3 17 7 22 12 13 5 -7 6 -18 3 -26z m-96 -519 c-3 -3 -12 -4 -19 -1
-8 3 -5 6 6 6 11 1 17 -2 13 -5z"/>
<path d="M2022 1265 c0 -5 6 -26 13 -45 7 -19 14 -28 14 -20 0 8 -6 29 -14 45
-7 17 -13 26 -13 20z"/>
<path d="M2071 1260 c0 -8 4 -24 9 -35 5 -13 9 -14 9 -5 0 8 -4 24 -9 35 -5
13 -9 14 -9 5z"/>
<path d="M2263 1220 c0 -25 2 -35 4 -22 2 12 2 32 0 45 -2 12 -4 2 -4 -23z"/>
<path d="M2102 1240 c0 -8 4 -26 8 -40 6 -20 8 -21 8 -5 0 11 -3 29 -8 40 -5
12 -8 14 -8 5z"/>
<path d="M2177 1205 c3 -27 7 -52 9 -54 7 -8 2 54 -6 79 -6 17 -7 9 -3 -25z"/>
<path d="M2152 1220 c0 -14 2 -19 5 -12 2 6 2 18 0 25 -3 6 -5 1 -5 -13z"/>
<path d="M2242 1210 c0 -19 2 -27 5 -17 2 9 2 25 0 35 -3 9 -5 1 -5 -18z"/>
<path d="M2222 1200 c0 -19 2 -27 5 -17 2 9 2 25 0 35 -3 9 -5 1 -5 -18z"/>
<path d="M2202 1190 c0 -19 2 -27 5 -17 2 9 2 25 0 35 -3 9 -5 1 -5 -18z"/>
<path d="M2092 1190 c0 -8 4 -26 8 -40 6 -20 8 -21 8 -5 0 11 -3 29 -8 40 -5
12 -8 14 -8 5z"/>
<path d="M2071 1174 c0 -11 3 -14 6 -6 3 7 2 16 -1 19 -3 4 -6 -2 -5 -13z"/>
<path d="M2162 1165 c0 -16 2 -22 5 -12 2 9 2 23 0 30 -3 6 -5 -1 -5 -18z"/>
<path d="M2052 1170 c0 -8 4 -26 8 -40 6 -20 8 -21 8 -5 0 11 -3 29 -8 40 -5
12 -8 14 -8 5z"/>
<path d="M2142 1160 c0 -14 2 -19 5 -12 2 6 2 18 0 25 -3 6 -5 1 -5 -13z"/>
<path d="M2122 1150 c0 -14 2 -19 5 -12 2 6 2 18 0 25 -3 6 -5 1 -5 -13z"/>
<path d="M2272 1140 c0 -19 2 -27 5 -17 2 9 2 25 0 35 -3 9 -5 1 -5 -18z"/>
<path d="M2081 1134 c0 -11 3 -14 6 -6 3 7 2 16 -1 19 -3 4 -6 -2 -5 -13z"/>
<path d="M2041 1124 c0 -11 3 -14 6 -6 3 7 2 16 -1 19 -3 4 -6 -2 -5 -13z"/>
<path d="M2193 1095 c0 -22 2 -30 4 -17 2 12 2 30 0 40 -3 9 -5 -1 -4 -23z"/>
<path d="M2212 1100 c0 -19 2 -27 5 -17 2 9 2 25 0 35 -3 9 -5 1 -5 -18z"/>
<path d="M2231 1114 c0 -11 3 -14 6 -6 3 7 2 16 -1 19 -3 4 -6 -2 -5 -13z"/>
<path d="M2132 1064 c-2 -47 2 -67 16 -81 9 -10 13 -12 7 -4 -5 7 -13 44 -16
80 l-6 66 -1 -61z"/>
<path d="M2154 1062 c2 -52 7 -67 26 -85 l24 -22 -18 22 c-11 14 -22 49 -27
85 l-8 63 3 -63z"/>
<path d="M2173 1080 c0 -25 2 -35 4 -22 2 12 2 32 0 45 -2 12 -4 2 -4 -23z"/>
<path d="M2092 1080 c0 -19 2 -27 5 -17 2 9 2 25 0 35 -3 9 -5 1 -5 -18z"/>
<path d="M2112 1049 c-2 -57 1 -68 21 -85 22 -19 22 -19 5 1 -11 13 -18 43
-21 85 l-3 65 -2 -66z"/>
<path d="M1553 1079 c-2 -23 3 -25 10 -4 4 8 3 16 -1 19 -4 3 -9 -4 -9 -15z"/>
<path d="M2029 1079 c0 -22 -1 -23 -9 -4 -7 14 -8 8 -3 -20 8 -53 9 -53 17 -4
4 23 4 44 1 47 -3 3 -5 -6 -6 -19z"/>
<path d="M2052 1080 c0 -14 2 -19 5 -12 2 6 2 18 0 25 -3 6 -5 1 -5 -13z"/>
<path d="M2072 1080 c0 -14 2 -19 5 -12 2 6 2 18 0 25 -3 6 -5 1 -5 -13z"/>
<path d="M2262 1075 c0 -16 2 -22 5 -12 2 9 2 23 0 30 -3 6 -5 -1 -5 -18z"/>
<path d="M1325 1071 c-3 -5 -1 -12 5 -16 5 -3 10 1 10 9 0 18 -6 21 -15 7z"/>
<path d="M2240 1064 c0 -10 5 -26 10 -34 8 -11 9 -7 4 15 -8 37 -14 45 -14 19z"/>
<path d="M2220 1052 c0 -7 5 -22 11 -34 6 -11 8 -22 5 -25 -3 -3 -12 9 -20 28
-9 19 -15 27 -16 19 0 -9 7 -26 16 -39 24 -33 38 -12 20 30 -9 19 -15 28 -16
21z"/>
<path d="M2038 1010 c-2 -22 0 -47 4 -57 4 -10 7 6 7 40 1 66 -5 76 -11 17z"/>
<path d="M2061 1014 c-1 -27 5 -48 17 -61 9 -10 13 -13 7 -5 -5 8 -12 35 -16
61 l-6 46 -2 -41z"/>
<path d="M1525 1022 c-16 -2 -37 -10 -46 -18 -9 -8 -19 -11 -24 -7 -4 5 -3 -1
3 -12 6 -11 14 -41 17 -67 3 -27 11 -48 16 -48 6 0 8 8 5 18 -3 9 -8 31 -11
47 -6 27 -5 28 8 13 21 -27 28 -22 12 9 -18 34 -6 43 55 46 22 1 40 4 40 8 0
9 -39 15 -75 11z"/>
<path d="M1297 1013 c-15 -15 -5 -21 26 -17 33 6 102 -15 80 -23 -7 -3 -13 -9
-13 -14 0 -6 5 -7 11 -3 9 5 10 -7 5 -42 -10 -65 8 -46 21 22 l10 52 -34 16
c-34 16 -94 22 -106 9z"/>
<path d="M2085 995 c4 -17 11 -34 16 -39 5 -5 4 5 -1 24 -12 42 -24 55 -15 15z"/>
<path d="M2202 984 c17 -20 17 -21 -10 -41 -45 -33 -92 -54 -104 -47 -6 4 -8
3 -5 -3 4 -6 -5 -15 -19 -22 -34 -15 -44 -14 -44 7 0 14 -2 15 -10 2 -5 -8
-10 -22 -10 -31 0 -25 139 34 191 80 l41 36 -23 20 -24 20 17 -21z"/>
<path d="M1311 956 c16 -17 38 -29 57 -30 17 -1 29 2 26 6 -3 4 -16 8 -29 8
-26 0 -41 15 -25 25 5 3 10 1 10 -4 0 -6 7 -11 15 -11 8 0 15 7 15 15 0 10
-10 15 -30 15 -16 0 -30 -5 -30 -11 0 -8 -6 -7 -17 2 -10 7 -6 0 8 -15z"/>
<path d="M1510 971 c0 -16 22 -24 30 -11 5 8 10 9 14 2 4 -6 -2 -15 -11 -21
-14 -8 -15 -10 -3 -10 21 0 50 23 50 40 0 11 -2 11 -10 -1 -6 -10 -10 -11 -10
-2 0 7 -13 12 -30 12 -16 0 -30 -4 -30 -9z"/>
<path d="M2022 920 c0 -14 2 -19 5 -12 2 6 2 18 0 25 -3 6 -5 1 -5 -13z"/>
<path d="M1315 869 c-4 -6 -5 -12 -2 -15 2 -3 7 2 10 11 7 17 1 20 -8 4z"/>
<path d="M1399 846 c6 -6 30 -10 56 -8 59 5 49 17 -16 18 -34 0 -46 -3 -40
-10z"/>
<path d="M1402 800 c-6 -11 -18 -17 -26 -14 -8 3 -19 -3 -26 -15 -10 -20 -1
-29 14 -14 12 12 136 14 158 2 15 -8 19 -8 14 0 -4 6 -2 11 5 11 13 0 3 14
-12 16 -5 1 -13 2 -19 3 -5 0 -10 7 -10 15 0 23 -83 20 -98 -4z m71 -17 c-7
-2 -19 -2 -25 0 -7 3 -2 5 12 5 14 0 19 -2 13 -5z"/>
<path d="M1453 740 c-16 -7 -23 -18 -23 -37 1 -25 2 -26 12 -9 10 18 11 18 24
1 12 -16 13 -16 11 4 -1 11 -5 21 -10 21 -5 0 -4 7 3 15 14 17 13 17 -17 5z"/>
<path d="M1446 673 c-6 -14 -5 -15 5 -6 7 7 10 15 7 18 -3 3 -9 -2 -12 -12z"/>
<path d="M1279 640 c-11 -61 51 -177 87 -163 15 6 28 -14 43 -64 8 -29 16 -41
26 -37 11 4 10 9 -6 25 -10 10 -19 26 -19 34 0 22 8 18 24 -12 l15 -28 -3 30
c-2 17 0 35 5 41 6 8 2 10 -13 7 -13 -2 -45 9 -73 24 -43 24 -51 34 -58 68 -5
22 -12 54 -16 70 -8 29 -8 29 -12 5z"/>
<path d="M1230 592 c0 -4 10 -13 23 -21 22 -14 22 -14 3 8 -20 22 -26 25 -26
13z"/>
<path d="M1475 519 c-4 -6 -5 -12 -2 -15 2 -3 7 2 10 11 7 17 1 20 -8 4z"/>
<path d="M1362 458 c2 -6 10 -14 16 -16 7 -2 10 2 6 12 -7 18 -28 22 -22 4z"/>
<path d="M1501 423 c0 -6 -4 -20 -7 -30 -5 -14 -4 -15 5 -7 7 7 11 20 8 30 -3
11 -5 14 -6 7z"/>
<path d="M1654 408 l-19 -23 23 19 c21 18 27 26 19 26 -2 0 -12 -10 -23 -22z"/>
<path d="M1361 403 c-1 -7 -8 -10 -17 -6 -10 4 -8 -3 7 -18 27 -27 34 -23 20
12 -5 13 -10 19 -10 12z"/>
</g>
</svg>
